<?xml version="1.0" encoding="utf-8"?>
<!-- Generator: Adobe Illustrator 16.0.0, SVG Export Plug-In . SVG Version: 6.00 Build 0)  -->
<!DOCTYPE svg PUBLIC "-//W3C//DTD SVG 1.1//EN" "http://www.w3.org/Graphics/SVG/1.1/DTD/svg11.dtd">
<svg version="1.1" xmlns="http://www.w3.org/2000/svg" xmlns:xlink="http://www.w3.org/1999/xlink" x="0px" y="0px"
	 width="1006.062px" height="356px" viewBox="0 0 1006.062 356" enable-background="new 0 0 1006.062 356" xml:space="preserve">
<g id="Calque_1" display="none">
	
		<image display="inline" overflow="visible" width="799" height="304" xlink:href="../../../../../../.Trash/old-simplon-roubaix-site/img/schema.png"  transform="matrix(1 0 0 1 23 28)">
	</image>
</g>
<g id="Calque_2">
</g>
<g id="Calque_3">
	<g>
		<circle fill="none" stroke="#FDBE00" stroke-miterlimit="10" stroke-dasharray="3.9954,3.9954" cx="125" cy="194" r="117"/>
	</g>
	<circle fill="#FF0A2B" cx="125" cy="194" r="109"/>
	<circle fill="none" stroke="#FDBE00" stroke-miterlimit="10" stroke-dasharray="4" cx="356" cy="119" r="65"/>
	<circle fill="none" stroke="#FDBE00" stroke-miterlimit="10" stroke-dasharray="4" cx="557" cy="119" r="65"/>
	<circle fill="#FF0A2B" cx="356" cy="119" r="59"/>
	<circle fill="none" stroke="#FDBE00" stroke-miterlimit="10" stroke-dasharray="4" cx="356" cy="270.333" r="65"/>
	<circle fill="#FF0A2B" cx="356" cy="270.333" r="59"/>
	<circle fill="#FF0A2B" cx="557" cy="119" r="59"/>
	<g>
		<path fill="#FFFFFF" d="M75.662,161.633h-7.513v-2.966h18.188v2.966h-7.512v20.362h-3.163V161.633z"/>
		<path fill="#FFFFFF" d="M89.696,158.667h8.205c1.494,0,2.723,0.204,3.69,0.61c0.966,0.406,1.73,0.922,2.29,1.548
			c0.561,0.626,0.951,1.329,1.17,2.109c0.219,0.78,0.33,1.532,0.33,2.256c0,0.747-0.133,1.467-0.396,2.159
			c-0.264,0.691-0.644,1.317-1.137,1.878c-0.495,0.561-1.099,1.032-1.812,1.417c-0.713,0.384-1.511,0.621-2.389,0.708l6.623,10.643
			h-3.954l-5.931-10.28H92.86v10.28h-3.164V158.667z M92.86,168.948h4.15c0.615,0,1.224-0.049,1.829-0.148
			c0.605-0.098,1.142-0.28,1.614-0.543c0.473-0.264,0.851-0.643,1.137-1.137c0.285-0.495,0.429-1.137,0.429-1.928
			s-0.144-1.433-0.429-1.927c-0.286-0.495-0.664-0.874-1.137-1.137c-0.472-0.264-1.009-0.445-1.614-0.544
			c-0.604-0.099-1.213-0.147-1.829-0.147h-4.15V168.948z"/>
		<path fill="#FFFFFF" d="M120.537,182.588c-1.779,0-3.416-0.312-4.91-0.938c-1.495-0.626-2.774-1.488-3.838-2.586
			c-1.066-1.098-1.901-2.395-2.504-3.888c-0.604-1.494-0.906-3.107-0.906-4.844c0-1.735,0.302-3.349,0.906-4.844
			c0.603-1.494,1.438-2.789,2.504-3.888c1.064-1.098,2.344-1.96,3.838-2.586c1.494-0.626,3.13-0.938,4.91-0.938
			c1.779,0,3.415,0.312,4.908,0.938c1.493,0.626,2.773,1.488,3.839,2.586c1.065,1.1,1.9,2.395,2.503,3.888
			c0.604,1.495,0.906,3.109,0.906,4.844c0,1.736-0.302,3.35-0.906,4.844c-0.604,1.494-1.438,2.79-2.503,3.888
			c-1.066,1.098-2.346,1.96-3.839,2.586C123.952,182.275,122.316,182.588,120.537,182.588z M120.537,179.624
			c1.339,0,2.547-0.248,3.624-0.741c1.077-0.495,1.999-1.158,2.767-1.994c0.77-0.835,1.362-1.818,1.779-2.949
			c0.418-1.13,0.626-2.334,0.626-3.608s-0.208-2.476-0.626-3.608c-0.417-1.131-1.01-2.114-1.779-2.949
			c-0.768-0.834-1.69-1.499-2.767-1.992c-1.077-0.495-2.285-0.742-3.624-0.742c-1.341,0-2.549,0.247-3.625,0.742
			c-1.077,0.493-1.999,1.158-2.767,1.992c-0.77,0.835-1.362,1.818-1.779,2.949c-0.418,1.132-0.626,2.334-0.626,3.608
			s0.208,2.478,0.626,3.608c0.417,1.131,1.01,2.114,1.779,2.949c0.769,0.835,1.69,1.499,2.767,1.994
			C117.988,179.375,119.196,179.624,120.537,179.624z"/>
		<path fill="#FFFFFF" d="M137.24,158.667h4.152l12.85,19.176h0.066v-19.176h3.163v23.328h-4.02L140.47,162.82h-0.066v19.176h-3.164
			V158.667z"/>
		<path fill="#FFFFFF" d="M179.71,163.708c-0.658-0.856-1.493-1.515-2.503-1.976c-1.011-0.461-2.055-0.692-3.13-0.692
			c-1.318,0-2.51,0.247-3.576,0.742c-1.064,0.493-1.976,1.169-2.733,2.025c-0.759,0.857-1.346,1.862-1.763,3.015
			c-0.418,1.153-0.626,2.389-0.626,3.707c0,1.229,0.197,2.395,0.592,3.493s0.967,2.064,1.714,2.898
			c0.747,0.835,1.658,1.495,2.735,1.978c1.077,0.482,2.295,0.725,3.657,0.725c1.339,0,2.515-0.274,3.526-0.824
			c1.01-0.548,1.866-1.318,2.569-2.306l2.669,2.01c-0.176,0.241-0.483,0.587-0.922,1.038c-0.44,0.451-1.022,0.901-1.747,1.352
			c-0.724,0.45-1.597,0.846-2.618,1.185c-1.022,0.34-2.203,0.511-3.542,0.511c-1.846,0-3.51-0.351-4.992-1.054
			c-1.481-0.703-2.746-1.625-3.789-2.767c-1.043-1.143-1.839-2.434-2.389-3.872c-0.549-1.438-0.823-2.895-0.823-4.365
			c0-1.802,0.296-3.465,0.89-4.993c0.592-1.525,1.421-2.843,2.487-3.954c1.066-1.108,2.345-1.971,3.838-2.586
			s3.141-0.922,4.943-0.922c1.537,0,3.047,0.296,4.53,0.889c1.483,0.594,2.696,1.506,3.64,2.735L179.71,163.708z"/>
		<path fill="#FFFFFF" d="M65.1,203.248c-0.658-0.856-1.494-1.515-2.503-1.976c-1.011-0.461-2.055-0.692-3.13-0.692
			c-1.318,0-2.51,0.247-3.576,0.742c-1.064,0.493-1.976,1.169-2.734,2.026c-0.759,0.856-1.346,1.862-1.763,3.015
			c-0.418,1.153-0.626,2.389-0.626,3.707c0,1.229,0.197,2.395,0.592,3.493s0.967,2.064,1.713,2.898
			c0.747,0.835,1.658,1.495,2.735,1.978c1.077,0.483,2.295,0.725,3.658,0.725c1.339,0,2.515-0.274,3.526-0.824
			c1.009-0.548,1.866-1.318,2.569-2.306l2.669,2.01c-0.176,0.241-0.482,0.587-0.922,1.038c-0.439,0.451-1.021,0.901-1.747,1.352
			c-0.724,0.45-1.597,0.846-2.619,1.185c-1.021,0.34-2.203,0.511-3.542,0.511c-1.846,0-3.51-0.351-4.993-1.054
			c-1.481-0.703-2.746-1.625-3.789-2.767c-1.043-1.142-1.839-2.433-2.389-3.872c-0.548-1.438-0.823-2.895-0.823-4.365
			c0-1.802,0.296-3.465,0.89-4.993c0.593-1.525,1.421-2.843,2.487-3.954c1.066-1.108,2.345-1.971,3.839-2.586
			c1.493-0.615,3.141-0.922,4.943-0.922c1.537,0,3.047,0.296,4.53,0.889c1.483,0.594,2.696,1.506,3.64,2.735L65.1,203.248z"/>
		<path fill="#FFFFFF" d="M82.761,222.127c-1.779,0-3.416-0.312-4.909-0.938c-1.495-0.626-2.774-1.488-3.839-2.586
			c-1.065-1.098-1.901-2.395-2.504-3.888c-0.605-1.493-0.906-3.107-0.906-4.844c0-1.735,0.301-3.349,0.906-4.844
			c0.603-1.494,1.438-2.789,2.504-3.888c1.064-1.098,2.344-1.96,3.839-2.586c1.493-0.626,3.13-0.938,4.909-0.938
			s3.415,0.312,4.908,0.938c1.494,0.626,2.774,1.488,3.84,2.586c1.064,1.1,1.899,2.395,2.503,3.888
			c0.604,1.495,0.906,3.109,0.906,4.844c0,1.736-0.302,3.351-0.906,4.844c-0.604,1.494-1.438,2.79-2.503,3.888
			c-1.066,1.098-2.346,1.96-3.84,2.586C86.176,221.814,84.54,222.127,82.761,222.127z M82.761,219.163
			c1.339,0,2.547-0.248,3.624-0.741c1.076-0.495,1.999-1.158,2.767-1.994c0.77-0.835,1.362-1.818,1.779-2.949
			c0.418-1.13,0.626-2.334,0.626-3.608s-0.208-2.476-0.626-3.608c-0.417-1.131-1.009-2.114-1.779-2.949
			c-0.768-0.834-1.691-1.499-2.767-1.992c-1.077-0.495-2.285-0.742-3.624-0.742c-1.341,0-2.549,0.247-3.625,0.742
			c-1.077,0.493-1.999,1.158-2.767,1.992c-0.77,0.835-1.362,1.818-1.779,2.949c-0.418,1.132-0.626,2.334-0.626,3.608
			s0.208,2.478,0.626,3.608c0.417,1.131,1.009,2.114,1.779,2.949c0.768,0.835,1.69,1.499,2.767,1.994
			C80.212,218.915,81.42,219.163,82.761,219.163z"/>
		<path fill="#FFFFFF" d="M99.233,198.207h4.713l7.412,17.661h0.133l7.347-17.661h4.711v23.328h-3.163v-19.176h-0.065l-7.875,19.176
			h-2.109l-7.874-19.176h-0.066v19.176h-3.164V198.207z"/>
		<path fill="#FFFFFF" d="M129.085,198.207h4.712l7.413,17.661h0.133l7.347-17.661h4.711v23.328h-3.163v-19.176h-0.066
			l-7.875,19.176h-2.109l-7.874-19.176h-0.065v19.176h-3.164V198.207z"/>
		<path fill="#FFFFFF" d="M161.902,198.207v14.3c0,0.726,0.099,1.478,0.296,2.258c0.198,0.779,0.528,1.499,0.989,2.157
			c0.461,0.66,1.064,1.198,1.812,1.615c0.747,0.417,1.669,0.626,2.769,0.626c1.098,0,2.021-0.209,2.767-0.626
			s1.351-0.956,1.812-1.615c0.461-0.658,0.791-1.378,0.988-2.157c0.198-0.78,0.296-1.532,0.296-2.258v-14.3h3.164v14.794
			c0,1.362-0.23,2.597-0.693,3.707c-0.461,1.109-1.098,2.07-1.911,2.882s-1.768,1.438-2.866,1.878
			c-1.098,0.438-2.285,0.658-3.558,0.658c-1.275,0-2.46-0.22-3.558-0.658c-1.1-0.44-2.055-1.066-2.868-1.878
			s-1.449-1.773-1.911-2.882c-0.461-1.11-0.692-2.345-0.692-3.707v-14.794H161.902z"/>
		<path fill="#FFFFFF" d="M182.362,198.207h4.152l12.85,19.176h0.066v-19.176h3.163v23.328h-4.02l-12.981-19.176h-0.066v19.176
			h-3.164V198.207z"/>
	</g>
</g>
<g id="Calque_4">
	<g>
		<path fill="#FFFFFF" d="M304.114,107.712h3.685c0.746,0,1.4,0.085,1.962,0.253c0.562,0.169,1.05,0.396,1.462,0.679
			c0.413,0.284,0.756,0.61,1.029,0.978c0.273,0.368,0.49,0.746,0.649,1.134c0.159,0.388,0.274,0.776,0.344,1.164
			c0.069,0.388,0.104,0.746,0.104,1.074c0,0.676-0.124,1.331-0.373,1.962c-0.248,0.631-0.617,1.193-1.104,1.686
			c-0.488,0.492-1.092,0.887-1.813,1.186c-0.721,0.298-1.554,0.447-2.5,0.447h-3.446V107.712z M305.546,116.933h1.805
			c0.607,0,1.182-0.082,1.724-0.246c0.542-0.165,1.017-0.411,1.425-0.739c0.408-0.328,0.731-0.738,0.97-1.23
			c0.238-0.492,0.358-1.067,0.358-1.724c0-0.338-0.055-0.733-0.164-1.186c-0.11-0.452-0.316-0.883-0.619-1.291
			c-0.304-0.408-0.724-0.753-1.261-1.037c-0.537-0.283-1.233-0.425-2.089-0.425h-2.148V116.933z"/>
		<path fill="#FFFFFF" d="M315.409,107.712h6.819v1.343h-5.386v3.148h5.013v1.342h-5.013v3.387h5.654v1.343h-7.087V107.712z"/>
		<path fill="#FFFFFF" d="M323.078,107.712h1.655l3.104,8.594h0.03l3.223-8.594h1.566l-4.162,10.563h-1.343L323.078,107.712z"/>
		<path fill="#FFFFFF" d="M333.924,107.712h6.819v1.343h-5.386v3.148h5.013v1.342h-5.013v3.387h5.654v1.343h-7.087V107.712z"/>
		<path fill="#FFFFFF" d="M343.04,107.712h1.433v9.22h4.849v1.343h-6.282V107.712z"/>
		<path fill="#FFFFFF" d="M355.633,118.544c-0.806,0-1.547-0.142-2.223-0.425c-0.677-0.284-1.256-0.674-1.738-1.171
			c-0.483-0.497-0.861-1.084-1.134-1.76c-0.274-0.677-0.41-1.407-0.41-2.194c0-0.785,0.136-1.516,0.41-2.193
			c0.273-0.676,0.651-1.263,1.134-1.76c0.482-0.498,1.061-0.888,1.738-1.171c0.676-0.283,1.417-0.425,2.223-0.425
			s1.546,0.142,2.223,0.425c0.676,0.284,1.256,0.674,1.739,1.171c0.482,0.498,0.86,1.084,1.133,1.76
			c0.274,0.677,0.411,1.408,0.411,2.193c0,0.787-0.137,1.517-0.411,2.194c-0.273,0.676-0.651,1.263-1.133,1.76
			c-0.482,0.497-1.062,0.888-1.739,1.171C357.179,118.402,356.438,118.544,355.633,118.544z M355.633,117.202
			c0.606,0,1.154-0.112,1.641-0.336c0.488-0.224,0.905-0.524,1.253-0.903c0.349-0.378,0.617-0.823,0.806-1.335
			c0.189-0.512,0.284-1.057,0.284-1.634c0-0.577-0.094-1.121-0.284-1.633c-0.189-0.513-0.457-0.958-0.806-1.336
			c-0.348-0.377-0.765-0.679-1.253-0.902c-0.487-0.224-1.035-0.336-1.641-0.336c-0.607,0-1.154,0.112-1.642,0.336
			c-0.487,0.223-0.905,0.524-1.253,0.902c-0.348,0.378-0.617,0.823-0.806,1.336c-0.189,0.512-0.283,1.057-0.283,1.633
			c0,0.577,0.094,1.122,0.283,1.634c0.189,0.513,0.458,0.958,0.806,1.335c0.348,0.378,0.766,0.679,1.253,0.903
			C354.479,117.089,355.026,117.202,355.633,117.202z"/>
		<path fill="#FFFFFF" d="M363.197,107.712h3.715c0.676,0,1.233,0.092,1.671,0.276c0.438,0.184,0.784,0.418,1.037,0.701
			c0.254,0.284,0.431,0.602,0.53,0.955c0.099,0.354,0.149,0.694,0.149,1.022s-0.05,0.669-0.149,1.022
			c-0.1,0.353-0.276,0.671-0.53,0.955c-0.253,0.284-0.599,0.517-1.037,0.701c-0.438,0.184-0.995,0.276-1.671,0.276h-2.283v4.655
			h-1.433V107.712z M364.629,112.367h1.879c0.279,0,0.555-0.022,0.828-0.067c0.274-0.044,0.518-0.127,0.731-0.246
			c0.214-0.12,0.386-0.291,0.515-0.515c0.129-0.224,0.194-0.515,0.194-0.873c0-0.358-0.065-0.649-0.194-0.873
			c-0.129-0.224-0.301-0.396-0.515-0.515c-0.213-0.12-0.457-0.202-0.731-0.247c-0.273-0.045-0.549-0.067-0.828-0.067h-1.879V112.367
			z"/>
		<path fill="#FFFFFF" d="M372.044,107.712h3.715c0.676,0,1.233,0.092,1.67,0.276c0.438,0.184,0.784,0.418,1.037,0.701
			c0.254,0.284,0.431,0.602,0.53,0.955c0.099,0.354,0.149,0.694,0.149,1.022s-0.051,0.669-0.149,1.022
			c-0.1,0.353-0.276,0.671-0.53,0.955c-0.253,0.284-0.599,0.517-1.037,0.701c-0.438,0.184-0.994,0.276-1.67,0.276h-2.283v4.655
			h-1.433V107.712z M373.477,112.367h1.88c0.278,0,0.554-0.022,0.828-0.067c0.274-0.044,0.517-0.127,0.731-0.246
			c0.214-0.12,0.386-0.291,0.515-0.515c0.13-0.224,0.194-0.515,0.194-0.873c0-0.358-0.064-0.649-0.194-0.873
			c-0.129-0.224-0.3-0.396-0.515-0.515c-0.214-0.12-0.457-0.202-0.731-0.247s-0.549-0.067-0.828-0.067h-1.88V112.367z"/>
		<path fill="#FFFFFF" d="M380.891,107.712h6.819v1.343h-5.386v3.148h5.013v1.342h-5.013v3.387h5.654v1.343h-7.087V107.712z"/>
		<path fill="#FFFFFF" d="M391.246,107.712v6.475c0,0.328,0.045,0.669,0.134,1.022c0.09,0.353,0.239,0.679,0.448,0.977
			c0.209,0.299,0.482,0.543,0.82,0.731c0.338,0.189,0.756,0.284,1.253,0.284c0.497,0,0.915-0.095,1.253-0.284
			c0.338-0.188,0.612-0.433,0.821-0.731c0.208-0.298,0.358-0.624,0.447-0.977c0.09-0.354,0.134-0.694,0.134-1.022v-6.475h1.433
			v6.699c0,0.617-0.104,1.176-0.314,1.678c-0.209,0.502-0.497,0.938-0.865,1.306c-0.368,0.368-0.801,0.651-1.298,0.85
			s-1.034,0.298-1.611,0.298s-1.114-0.1-1.611-0.298s-0.931-0.482-1.298-0.85c-0.368-0.368-0.656-0.803-0.865-1.306
			c-0.208-0.502-0.313-1.062-0.313-1.678v-6.699H391.246z"/>
		<path fill="#FFFFFF" d="M400.51,107.712h3.715c0.676,0,1.233,0.092,1.671,0.276c0.438,0.184,0.784,0.418,1.037,0.701
			c0.254,0.284,0.431,0.602,0.53,0.955c0.099,0.354,0.149,0.694,0.149,1.022c0,0.338-0.06,0.664-0.179,0.977
			c-0.12,0.313-0.292,0.597-0.515,0.851c-0.224,0.254-0.498,0.468-0.821,0.642c-0.323,0.174-0.684,0.281-1.082,0.321l2.999,4.819
			h-1.791l-2.686-4.655h-1.596v4.655h-1.433V107.712z M401.943,112.367h1.879c0.279,0,0.555-0.022,0.828-0.067
			c0.274-0.044,0.518-0.127,0.731-0.246c0.214-0.12,0.385-0.291,0.515-0.515c0.129-0.224,0.194-0.515,0.194-0.873
			c0-0.358-0.065-0.649-0.194-0.873c-0.129-0.224-0.301-0.396-0.515-0.515c-0.214-0.12-0.458-0.202-0.731-0.247
			c-0.273-0.045-0.549-0.067-0.828-0.067h-1.879V112.367z"/>
		<path fill="#FFFFFF" d="M334.165,125.63h2.053l3.213,11.621h0.041l3.419-11.621h2.259l3.417,11.621h0.041l3.214-11.621h2.054
			l-4.23,14.537h-2.095l-3.51-11.868H344l-3.491,11.868h-2.095L334.165,125.63z"/>
		<path fill="#FFFFFF" d="M355.765,125.63h9.385v1.848h-7.413v4.333h6.899v1.847h-6.899v4.661h7.782v1.848h-9.753V125.63z"/>
		<path fill="#FFFFFF" d="M368.311,125.63h5.051c0.629,0,1.214,0.074,1.755,0.226c0.541,0.15,1.007,0.373,1.397,0.667
			c0.389,0.295,0.697,0.67,0.923,1.129c0.226,0.458,0.339,0.996,0.339,1.611c0,0.835-0.232,1.517-0.698,2.043
			c-0.466,0.527-1.067,0.914-1.806,1.161v0.041c0.438,0.027,0.848,0.14,1.232,0.339c0.383,0.197,0.715,0.458,0.996,0.78
			c0.28,0.321,0.502,0.694,0.667,1.119c0.165,0.424,0.247,0.883,0.247,1.375c0,0.657-0.134,1.235-0.401,1.734
			c-0.267,0.5-0.633,0.921-1.099,1.263c-0.465,0.342-1.006,0.603-1.622,0.781s-1.28,0.266-1.992,0.266h-4.989V125.63z
			 M370.282,131.667h2.689c0.37,0,0.718-0.038,1.048-0.114c0.328-0.075,0.616-0.202,0.862-0.38c0.247-0.178,0.442-0.403,0.585-0.677
			c0.144-0.274,0.216-0.609,0.216-1.006c0-0.575-0.186-1.075-0.555-1.5c-0.37-0.423-0.951-0.636-1.745-0.636h-3.101V131.667z
			 M370.282,138.442h2.895c0.301,0,0.633-0.031,0.996-0.093c0.363-0.062,0.701-0.185,1.016-0.37
			c0.314-0.186,0.582-0.434,0.801-0.749c0.219-0.315,0.329-0.732,0.329-1.253c0-0.862-0.281-1.509-0.842-1.94
			c-0.562-0.431-1.321-0.646-2.279-0.646h-2.916V138.442z"/>
	</g>
	<g>
		<path fill="#FFFFFF" d="M324.9,248.98c-0.291-0.379-0.66-0.67-1.107-0.875c-0.447-0.204-0.909-0.306-1.385-0.306
			c-0.583,0-1.111,0.109-1.582,0.329c-0.471,0.218-0.875,0.517-1.209,0.896c-0.335,0.378-0.595,0.824-0.78,1.333
			c-0.185,0.511-0.277,1.057-0.277,1.64c0,0.544,0.087,1.059,0.262,1.544c0.175,0.486,0.427,0.914,0.757,1.283
			c0.33,0.37,0.734,0.661,1.21,0.875c0.476,0.213,1.015,0.321,1.618,0.321c0.592,0,1.112-0.122,1.56-0.365
			c0.446-0.243,0.826-0.583,1.136-1.02l1.181,0.889c-0.078,0.106-0.214,0.26-0.408,0.459c-0.194,0.199-0.452,0.399-0.772,0.598
			c-0.32,0.199-0.706,0.374-1.158,0.524c-0.452,0.15-0.975,0.225-1.567,0.225c-0.817,0-1.552-0.155-2.208-0.465
			c-0.655-0.312-1.214-0.719-1.676-1.225s-0.813-1.076-1.057-1.713c-0.243-0.636-0.364-1.28-0.364-1.931
			c0-0.797,0.131-1.533,0.394-2.208c0.263-0.675,0.629-1.257,1.101-1.749c0.471-0.49,1.037-0.872,1.697-1.144
			c0.661-0.272,1.39-0.408,2.187-0.408c0.68,0,1.348,0.131,2.004,0.393c0.656,0.263,1.192,0.666,1.61,1.21L324.9,248.98z"/>
		<path fill="#FFFFFF" d="M327.976,246.75h1.399v4.286h5.348v-4.286h1.399v10.319h-1.399v-4.722h-5.348v4.722h-1.399V246.75z"/>
		<path fill="#FFFFFF" d="M342.01,246.75h1.268l4.416,10.319h-1.632l-1.034-2.551h-4.912l-1.021,2.551h-1.632L342.01,246.75z
			 M344.518,253.294l-1.924-4.736h-0.029l-1.952,4.736H344.518z"/>
		<path fill="#FFFFFF" d="M349.035,246.75h3.629c0.661,0,1.205,0.09,1.632,0.27c0.428,0.18,0.766,0.408,1.013,0.685
			c0.248,0.277,0.42,0.587,0.518,0.933c0.096,0.345,0.146,0.678,0.146,0.998c0,0.33-0.059,0.648-0.175,0.955
			c-0.116,0.306-0.285,0.583-0.502,0.831c-0.219,0.248-0.486,0.457-0.802,0.627c-0.315,0.169-0.668,0.274-1.057,0.312l2.93,4.708
			h-1.749l-2.624-4.547h-1.559v4.547h-1.4V246.75z M350.435,251.297h1.836c0.272,0,0.542-0.021,0.809-0.065
			c0.268-0.043,0.506-0.124,0.714-0.24c0.209-0.117,0.377-0.284,0.503-0.503c0.126-0.218,0.189-0.502,0.189-0.853
			s-0.063-0.634-0.189-0.852c-0.126-0.219-0.293-0.387-0.503-0.503c-0.208-0.116-0.446-0.196-0.714-0.241
			c-0.267-0.043-0.537-0.065-0.809-0.065h-1.836V251.297z"/>
		<path fill="#FFFFFF" d="M366.729,251.297v5.086c-0.252,0.156-0.54,0.292-0.859,0.409c-0.321,0.116-0.654,0.216-0.999,0.299
			c-0.345,0.082-0.695,0.143-1.049,0.182c-0.354,0.039-0.688,0.058-0.999,0.058c-0.875,0-1.654-0.146-2.339-0.437
			c-0.685-0.292-1.263-0.686-1.734-1.181c-0.47-0.495-0.831-1.071-1.079-1.727c-0.247-0.656-0.371-1.349-0.371-2.077
			c0-0.768,0.133-1.481,0.401-2.143c0.266-0.66,0.636-1.233,1.107-1.72c0.471-0.485,1.036-0.867,1.698-1.144
			c0.66-0.277,1.384-0.415,2.171-0.415c0.952,0,1.729,0.119,2.332,0.356c0.602,0.239,1.107,0.567,1.516,0.984l-0.991,1.064
			c-0.428-0.408-0.879-0.692-1.355-0.854c-0.476-0.16-0.977-0.24-1.501-0.24c-0.594,0-1.127,0.109-1.604,0.329
			c-0.477,0.218-0.884,0.512-1.224,0.881c-0.34,0.37-0.603,0.804-0.787,1.305c-0.185,0.5-0.277,1.032-0.277,1.596
			c0,0.583,0.102,1.125,0.306,1.625s0.486,0.935,0.845,1.304c0.359,0.37,0.782,0.658,1.268,0.867
			c0.486,0.209,1.015,0.314,1.588,0.314c0.496,0,0.964-0.046,1.407-0.139c0.441-0.092,0.819-0.226,1.129-0.401v-2.871h-2.288v-1.312
			H366.729z"/>
		<path fill="#FFFFFF" d="M369.278,246.75h6.661v1.312h-5.261v3.076h4.897v1.312h-4.897v3.309h5.524v1.312h-6.923V246.75z"/>
		<path fill="#FFFFFF" d="M331.833,264.365h3.629c0.661,0,1.205,0.09,1.632,0.27c0.427,0.18,0.765,0.408,1.012,0.685
			c0.248,0.277,0.421,0.588,0.518,0.933c0.097,0.345,0.146,0.678,0.146,0.998c0,0.321-0.049,0.653-0.146,0.999
			c-0.097,0.345-0.27,0.656-0.518,0.933c-0.248,0.277-0.585,0.505-1.012,0.685c-0.428,0.179-0.972,0.27-1.632,0.27h-2.23v4.547
			h-1.399V264.365z M333.232,268.912h1.836c0.272,0,0.541-0.022,0.809-0.066c0.267-0.043,0.505-0.124,0.714-0.24
			c0.209-0.117,0.376-0.284,0.503-0.503c0.126-0.219,0.189-0.502,0.189-0.853c0-0.35-0.063-0.634-0.189-0.853
			c-0.127-0.219-0.294-0.387-0.503-0.503c-0.208-0.117-0.447-0.196-0.714-0.241c-0.268-0.043-0.537-0.065-0.809-0.065h-1.836
			V268.912z"/>
		<path fill="#FFFFFF" d="M340.475,264.365h3.629c0.661,0,1.205,0.09,1.632,0.27c0.428,0.18,0.766,0.408,1.013,0.685
			c0.248,0.277,0.42,0.588,0.518,0.933c0.097,0.345,0.145,0.678,0.145,0.998c0,0.33-0.058,0.648-0.175,0.955
			s-0.284,0.583-0.503,0.831c-0.218,0.248-0.486,0.456-0.802,0.626c-0.315,0.17-0.668,0.275-1.057,0.313l2.929,4.708h-1.749
			l-2.623-4.547h-1.56v4.547h-1.399V264.365z M341.874,268.912h1.836c0.272,0,0.542-0.022,0.809-0.066
			c0.268-0.043,0.505-0.124,0.714-0.24c0.209-0.117,0.376-0.284,0.502-0.503s0.19-0.502,0.19-0.853c0-0.35-0.063-0.634-0.19-0.853
			c-0.126-0.219-0.293-0.387-0.502-0.503c-0.209-0.117-0.447-0.196-0.714-0.241c-0.267-0.043-0.537-0.065-0.809-0.065h-1.836
			V268.912z"/>
		<path fill="#FFFFFF" d="M354.116,274.945c-0.787,0-1.51-0.138-2.171-0.415c-0.661-0.277-1.227-0.658-1.697-1.144
			c-0.472-0.486-0.842-1.06-1.108-1.72c-0.267-0.661-0.401-1.374-0.401-2.143c0-0.767,0.134-1.481,0.401-2.143
			c0.267-0.66,0.637-1.233,1.108-1.72c0.471-0.485,1.037-0.866,1.697-1.143c0.661-0.277,1.385-0.415,2.171-0.415
			c0.788,0,1.511,0.138,2.171,0.415c0.661,0.277,1.227,0.658,1.699,1.143c0.471,0.487,0.84,1.06,1.107,1.72
			c0.267,0.661,0.401,1.375,0.401,2.143c0,0.769-0.134,1.482-0.401,2.143c-0.267,0.661-0.636,1.234-1.107,1.72
			c-0.472,0.485-1.038,0.867-1.699,1.144S354.904,274.945,354.116,274.945z M354.116,273.635c0.593,0,1.127-0.11,1.604-0.329
			s0.884-0.512,1.224-0.881c0.34-0.37,0.603-0.805,0.787-1.305c0.185-0.5,0.277-1.032,0.277-1.596s-0.092-1.095-0.277-1.596
			c-0.184-0.501-0.447-0.936-0.787-1.305c-0.34-0.369-0.748-0.663-1.224-0.881c-0.477-0.219-1.011-0.328-1.604-0.328
			s-1.127,0.108-1.603,0.328c-0.476,0.219-0.884,0.512-1.224,0.881c-0.341,0.369-0.603,0.804-0.787,1.305
			c-0.186,0.5-0.277,1.032-0.277,1.596s0.092,1.096,0.277,1.596c0.184,0.5,0.446,0.936,0.787,1.305
			c0.34,0.369,0.748,0.663,1.224,0.881C352.989,273.525,353.523,273.635,354.116,273.635z"/>
		<path fill="#FFFFFF" d="M364.727,264.365h1.399v7.375c0,0.651-0.102,1.183-0.306,1.595c-0.204,0.414-0.459,0.739-0.765,0.977
			c-0.306,0.238-0.634,0.403-0.984,0.496c-0.35,0.092-0.67,0.138-0.961,0.138c-0.729,0-1.343-0.187-1.844-0.561
			c-0.5-0.374-0.819-0.94-0.954-1.697l1.37-0.307c0.077,0.389,0.238,0.695,0.48,0.918c0.243,0.224,0.559,0.336,0.948,0.336
			c0.35,0,0.628-0.068,0.838-0.205c0.208-0.136,0.372-0.313,0.488-0.532s0.195-0.469,0.233-0.75c0.04-0.282,0.059-0.569,0.059-0.86
			V264.365z"/>
		<path fill="#FFFFFF" d="M368.529,264.365h6.661v1.312h-5.261v3.075h4.897v1.312h-4.897v3.309h5.524v1.312h-6.924V264.365z"/>
		<path fill="#FFFFFF" d="M379.592,265.677h-3.323v-1.312h8.045v1.312h-3.323v9.006h-1.399V265.677z"/>
		<path fill="#FFFFFF" d="M382.745,246.75h6.661v1.312h-5.261v3.075h4.896v1.312h-4.896v3.309h5.523v1.312h-6.923V246.75z"/>
		<path fill="#FFFFFF" d="M394.42,254.154h-3.586v-1.224h3.586V254.154z"/>
		<path fill="#FFFFFF" d="M315.293,282.729h1.836l5.684,8.482h0.029v-8.482h1.399v10.319h-1.778l-5.742-8.482h-0.029v8.482h-1.399
			V282.729z"/>
		<path fill="#FFFFFF" d="M328.104,282.729v6.326c0,0.321,0.043,0.653,0.131,0.998c0.087,0.345,0.233,0.663,0.437,0.954
			c0.204,0.292,0.471,0.531,0.801,0.715c0.331,0.184,0.738,0.277,1.225,0.277c0.486,0,0.894-0.093,1.224-0.277
			c0.33-0.185,0.598-0.423,0.802-0.715c0.204-0.291,0.35-0.609,0.438-0.954c0.087-0.345,0.131-0.677,0.131-0.998v-6.326h1.399v6.544
			c0,0.603-0.102,1.148-0.307,1.64c-0.204,0.49-0.485,0.916-0.845,1.274c-0.359,0.36-0.782,0.637-1.268,0.832
			c-0.486,0.194-1.011,0.291-1.574,0.291c-0.564,0-1.088-0.097-1.574-0.291c-0.485-0.195-0.909-0.472-1.268-0.832
			c-0.36-0.359-0.641-0.784-0.845-1.274c-0.204-0.491-0.306-1.037-0.306-1.64v-6.544H328.104z"/>
		<path fill="#FFFFFF" d="M337.052,282.729h2.085l3.278,7.812h0.059l3.25-7.812h2.083v10.319h-1.399v-8.482h-0.029l-3.483,8.482
			h-0.933l-3.482-8.482h-0.029v8.482h-1.4V282.729z"/>
		<path fill="#FFFFFF" d="M350.358,282.729h6.661v1.312h-5.262v3.076h4.897v1.312h-4.897v3.309h5.524v1.312h-6.923V282.729z"/>
		<path fill="#FFFFFF" d="M359.263,282.729h3.629c0.661,0,1.205,0.09,1.633,0.27c0.427,0.18,0.765,0.408,1.012,0.685
			c0.248,0.277,0.42,0.587,0.518,0.933c0.097,0.345,0.146,0.678,0.146,0.998c0,0.33-0.059,0.648-0.175,0.955
			c-0.117,0.306-0.285,0.583-0.503,0.831c-0.219,0.248-0.486,0.457-0.802,0.627c-0.316,0.169-0.668,0.274-1.057,0.312l2.93,4.708
			h-1.749l-2.624-4.547h-1.559v4.547h-1.4V282.729z M360.663,287.276h1.836c0.272,0,0.542-0.022,0.809-0.066
			c0.268-0.043,0.506-0.124,0.714-0.24c0.209-0.117,0.376-0.284,0.503-0.502c0.126-0.219,0.189-0.503,0.189-0.853
			c0-0.35-0.063-0.634-0.189-0.852c-0.127-0.219-0.294-0.387-0.503-0.503c-0.208-0.117-0.447-0.197-0.714-0.241
			c-0.267-0.043-0.537-0.065-0.809-0.065h-1.836V287.276z"/>
		<path fill="#FFFFFF" d="M368.168,282.729h1.4v10.319h-1.4V282.729z"/>
		<path fill="#FFFFFF" d="M382.874,293.047h-5.946c-0.729,0-1.419-0.131-2.069-0.394c-0.651-0.262-1.22-0.626-1.706-1.093
			c-0.486-0.465-0.869-1.022-1.151-1.668s-0.423-1.353-0.423-2.121c0-0.757,0.136-1.459,0.408-2.106
			c0.272-0.646,0.649-1.207,1.129-1.683c0.481-0.476,1.044-0.848,1.691-1.115c0.646-0.267,1.348-0.4,2.106-0.4
			c0.729,0,1.412,0.131,2.048,0.393c0.636,0.263,1.192,0.625,1.668,1.086c0.476,0.462,0.853,1.005,1.129,1.632
			c0.278,0.627,0.416,1.31,0.416,2.047c0,0.437-0.051,0.868-0.153,1.291c-0.102,0.422-0.253,0.818-0.452,1.188
			c-0.199,0.369-0.447,0.699-0.743,0.991c-0.296,0.291-0.634,0.525-1.013,0.699v0.029h3.06V293.047z M376.869,291.736
			c0.563,0,1.081-0.104,1.553-0.313c0.471-0.208,0.874-0.496,1.209-0.86c0.335-0.365,0.595-0.795,0.779-1.29
			c0.185-0.496,0.277-1.026,0.277-1.589c0-0.544-0.095-1.055-0.284-1.53c-0.19-0.476-0.454-0.889-0.794-1.239
			c-0.34-0.35-0.743-0.627-1.209-0.831c-0.467-0.205-0.977-0.306-1.531-0.306c-0.544,0-1.047,0.102-1.508,0.306
			c-0.462,0.204-0.863,0.48-1.202,0.831c-0.341,0.35-0.608,0.76-0.802,1.231c-0.195,0.472-0.292,0.974-0.292,1.508
			c0,0.563,0.092,1.093,0.277,1.588c0.184,0.496,0.444,0.928,0.78,1.297c0.334,0.37,0.736,0.661,1.202,0.874
			C375.791,291.629,376.306,291.736,376.869,291.736z"/>
		<path fill="#FFFFFF" d="M385.556,282.729v6.326c0,0.321,0.043,0.653,0.131,0.998c0.087,0.345,0.233,0.663,0.438,0.954
			c0.204,0.292,0.471,0.531,0.801,0.715c0.33,0.184,0.738,0.277,1.225,0.277c0.485,0,0.893-0.093,1.224-0.277
			c0.33-0.185,0.597-0.423,0.801-0.715c0.205-0.291,0.351-0.609,0.437-0.954c0.088-0.345,0.131-0.677,0.131-0.998v-6.326h1.4v6.544
			c0,0.603-0.102,1.148-0.307,1.64c-0.205,0.49-0.486,0.916-0.845,1.274c-0.359,0.36-0.782,0.637-1.268,0.832
			c-0.486,0.194-1.011,0.291-1.574,0.291c-0.564,0-1.088-0.097-1.574-0.291c-0.487-0.195-0.91-0.472-1.269-0.832
			c-0.359-0.359-0.642-0.784-0.845-1.274c-0.205-0.491-0.307-1.037-0.307-1.64v-6.544H385.556z"/>
		<path fill="#FFFFFF" d="M394.605,282.729h6.66v1.312h-5.261v3.076h4.897v1.312h-4.897v3.309h5.523v1.312h-6.923V282.729z"/>
	</g>
	<g>
		<path fill="#FFFFFF" d="M509.895,112.996h3.98c0.806,0,1.513,0.092,2.12,0.274c0.605,0.183,1.133,0.427,1.579,0.733
			c0.445,0.306,0.815,0.659,1.112,1.056c0.295,0.397,0.528,0.806,0.7,1.225c0.172,0.419,0.295,0.838,0.371,1.257
			c0.074,0.419,0.112,0.805,0.112,1.16c0,0.73-0.135,1.438-0.402,2.12c-0.269,0.682-0.666,1.289-1.193,1.821
			c-0.526,0.532-1.179,0.958-1.958,1.281c-0.779,0.322-1.68,0.483-2.699,0.483h-3.723V112.996z M511.441,122.956h1.95
			c0.655,0,1.275-0.088,1.86-0.266c0.587-0.178,1.1-0.443,1.54-0.798c0.44-0.354,0.79-0.797,1.048-1.329s0.386-1.153,0.386-1.862
			c0-0.365-0.059-0.792-0.177-1.281c-0.118-0.489-0.341-0.954-0.669-1.395c-0.328-0.44-0.782-0.814-1.361-1.12
			c-0.58-0.306-1.333-0.459-2.256-0.459h-2.321V122.956z"/>
		<path fill="#FFFFFF" d="M522.094,112.996h7.366v1.451h-5.818v3.401h5.415v1.45h-5.415v3.659h6.108v1.451h-7.656V112.996z"/>
		<path fill="#FFFFFF" d="M539.887,115.461c-0.322-0.419-0.73-0.741-1.225-0.967c-0.495-0.226-1.005-0.338-1.531-0.338
			c-0.645,0-1.228,0.121-1.748,0.363c-0.521,0.241-0.968,0.572-1.338,0.991c-0.371,0.419-0.658,0.911-0.863,1.475
			c-0.203,0.564-0.306,1.169-0.306,1.813c0,0.601,0.098,1.171,0.29,1.708c0.194,0.537,0.473,1.01,0.838,1.418
			c0.365,0.409,0.812,0.731,1.338,0.967c0.526,0.236,1.123,0.355,1.789,0.355c0.656,0,1.23-0.135,1.725-0.403
			c0.494-0.268,0.913-0.645,1.257-1.128l1.307,0.983c-0.087,0.118-0.237,0.287-0.452,0.508c-0.215,0.22-0.499,0.44-0.854,0.661
			c-0.354,0.221-0.781,0.414-1.281,0.58c-0.5,0.167-1.077,0.25-1.732,0.25c-0.902,0-1.716-0.171-2.441-0.515
			s-1.343-0.795-1.853-1.354c-0.512-0.559-0.901-1.19-1.169-1.894c-0.269-0.704-0.403-1.416-0.403-2.135
			c0-0.881,0.145-1.695,0.435-2.442c0.29-0.746,0.696-1.391,1.217-1.934c0.521-0.542,1.146-0.964,1.879-1.265
			c0.73-0.301,1.536-0.451,2.417-0.451c0.752,0,1.49,0.145,2.215,0.435c0.726,0.291,1.32,0.736,1.781,1.338L539.887,115.461z"/>
		<path fill="#FFFFFF" d="M548.526,124.696c-0.871,0-1.671-0.153-2.401-0.459s-1.356-0.728-1.879-1.265
			c-0.521-0.537-0.928-1.171-1.225-1.901c-0.295-0.731-0.441-1.521-0.441-2.37c0-0.849,0.146-1.638,0.441-2.37
			c0.297-0.73,0.704-1.364,1.225-1.901c0.522-0.537,1.148-0.959,1.879-1.265s1.53-0.459,2.401-0.459c0.87,0,1.671,0.153,2.401,0.459
			s1.356,0.728,1.877,1.265c0.522,0.538,0.93,1.171,1.225,1.901c0.296,0.731,0.443,1.521,0.443,2.37c0,0.849-0.147,1.639-0.443,2.37
			c-0.295,0.73-0.702,1.364-1.225,1.901c-0.521,0.537-1.146,0.959-1.877,1.265S549.396,124.696,548.526,124.696z M548.526,123.247
			c0.654,0,1.246-0.122,1.772-0.363c0.526-0.242,0.978-0.566,1.354-0.975c0.375-0.409,0.666-0.889,0.869-1.443
			c0.205-0.553,0.308-1.142,0.308-1.765s-0.103-1.211-0.308-1.765c-0.203-0.554-0.494-1.034-0.869-1.443
			c-0.377-0.408-0.828-0.733-1.354-0.975c-0.526-0.242-1.118-0.363-1.772-0.363c-0.655,0-1.247,0.121-1.773,0.363
			c-0.526,0.241-0.978,0.567-1.354,0.975c-0.376,0.409-0.666,0.889-0.871,1.443c-0.203,0.553-0.306,1.142-0.306,1.765
			s0.103,1.212,0.306,1.765c0.205,0.554,0.495,1.034,0.871,1.443s0.827,0.733,1.354,0.975
			C547.279,123.125,547.871,123.247,548.526,123.247z"/>
		<path fill="#FFFFFF" d="M556.696,112.996h1.548v9.96h5.237v1.451h-6.785V112.996z"/>
		<path fill="#FFFFFF" d="M565.061,112.996h1.548v9.96h5.237v1.451h-6.785V112.996z"/>
		<path fill="#FFFFFF" d="M577.002,112.996h1.402l4.884,11.411h-1.806l-1.144-2.821h-5.431l-1.128,2.821h-1.807L577.002,112.996z
			 M579.775,120.232l-2.128-5.238h-0.032l-2.16,5.238H579.775z"/>
		<path fill="#FFFFFF" d="M594.49,118.024v5.625c-0.279,0.172-0.597,0.322-0.951,0.452c-0.354,0.129-0.723,0.239-1.104,0.33
			c-0.382,0.091-0.769,0.158-1.16,0.202c-0.393,0.042-0.76,0.064-1.104,0.064c-0.968,0-1.829-0.161-2.588-0.483
			c-0.757-0.322-1.396-0.758-1.917-1.306c-0.521-0.548-0.919-1.185-1.192-1.91c-0.274-0.725-0.411-1.49-0.411-2.296
			c0-0.849,0.147-1.638,0.442-2.37c0.296-0.73,0.704-1.364,1.225-1.901c0.522-0.537,1.148-0.959,1.879-1.265s1.53-0.459,2.401-0.459
			c1.053,0,1.912,0.131,2.578,0.395c0.667,0.264,1.226,0.626,1.677,1.088l-1.097,1.177c-0.473-0.451-0.972-0.766-1.499-0.943
			c-0.526-0.177-1.079-0.266-1.659-0.266c-0.656,0-1.247,0.121-1.773,0.363c-0.526,0.241-0.978,0.567-1.354,0.975
			c-0.377,0.409-0.666,0.889-0.871,1.443c-0.203,0.553-0.306,1.142-0.306,1.765c0,0.645,0.113,1.244,0.339,1.797
			c0.226,0.554,0.536,1.034,0.935,1.443c0.397,0.408,0.864,0.728,1.402,0.958c0.536,0.231,1.123,0.347,1.757,0.347
			c0.548,0,1.065-0.051,1.555-0.153s0.905-0.25,1.249-0.443v-3.175h-2.53v-1.451H594.49z"/>
		<path fill="#FFFFFF" d="M597.31,112.996h7.366v1.451h-5.818v3.401h5.416v1.45h-5.416v3.659h6.108v1.451h-7.656V112.996z"/>
	</g>
	<g>
		<path fill="#FF0A2B" d="M701.115,47.119h5.788c0.761,0,1.482,0.074,2.165,0.222c0.684,0.147,1.283,0.395,1.797,0.739
			c0.514,0.346,0.922,0.811,1.225,1.395c0.302,0.584,0.454,1.312,0.454,2.186c0,1.057-0.274,1.954-0.823,2.693
			c-0.551,0.74-1.352,1.208-2.41,1.405l3.805,6.316h-3.951l-3.127-5.979h-1.624v5.979h-3.298V47.119z M704.413,53.309h1.941
			c0.297,0,0.609-0.011,0.939-0.032c0.331-0.021,0.631-0.084,0.898-0.19c0.269-0.106,0.488-0.271,0.666-0.497
			c0.176-0.225,0.264-0.541,0.264-0.951c0-0.38-0.077-0.682-0.23-0.908c-0.159-0.225-0.354-0.397-0.593-0.517
			c-0.24-0.119-0.514-0.201-0.825-0.243c-0.309-0.042-0.612-0.063-0.908-0.063h-2.152V53.309z"/>
		<path fill="#FF0A2B" d="M727.417,56.308c0,0.888-0.135,1.705-0.402,2.451c-0.268,0.746-0.664,1.394-1.192,1.943
			c-0.527,0.55-1.187,0.979-1.977,1.289c-0.789,0.309-1.696,0.464-2.724,0.464c-1.042,0-1.959-0.155-2.747-0.464
			c-0.788-0.31-1.446-0.739-1.977-1.289c-0.527-0.549-0.924-1.198-1.192-1.943c-0.268-0.747-0.401-1.563-0.401-2.451v-9.189h3.297
			v9.063c0,0.465,0.072,0.895,0.223,1.288c0.146,0.395,0.354,0.737,0.62,1.025c0.27,0.289,0.589,0.514,0.963,0.676
			c0.371,0.162,0.777,0.242,1.215,0.242c0.436,0,0.838-0.08,1.204-0.242s0.683-0.387,0.951-0.676
			c0.266-0.288,0.476-0.63,0.622-1.025c0.147-0.394,0.223-0.823,0.223-1.288v-9.063h3.295V56.308z"/>
		<path fill="#FF0A2B" d="M730.458,47.119h5.579c0.646,0,1.297,0.047,1.951,0.138c0.654,0.092,1.243,0.274,1.765,0.549
			c0.52,0.274,0.942,0.658,1.268,1.151c0.323,0.493,0.485,1.148,0.485,1.965c0,0.844-0.235,1.545-0.708,2.101
			c-0.472,0.557-1.096,0.954-1.868,1.194v0.042c0.493,0.071,0.939,0.208,1.341,0.413s0.747,0.464,1.036,0.781
			c0.288,0.316,0.509,0.687,0.664,1.11c0.156,0.421,0.233,0.873,0.233,1.352c0,0.789-0.168,1.447-0.507,1.975
			c-0.34,0.528-0.776,0.955-1.311,1.278c-0.534,0.324-1.138,0.557-1.809,0.696c-0.668,0.142-1.332,0.212-1.993,0.212h-6.127V47.119z
			 M733.754,53.097h2.387c0.254,0,0.503-0.027,0.75-0.084c0.246-0.055,0.468-0.147,0.667-0.274c0.195-0.127,0.353-0.297,0.474-0.506
			c0.117-0.212,0.18-0.465,0.18-0.761c0-0.309-0.068-0.566-0.2-0.771c-0.133-0.204-0.307-0.364-0.518-0.476
			c-0.212-0.113-0.45-0.194-0.719-0.243c-0.268-0.049-0.528-0.074-0.782-0.074h-2.238V53.097z M733.754,59.287h2.957
			c0.252,0,0.511-0.029,0.77-0.084c0.263-0.057,0.498-0.155,0.71-0.296c0.21-0.141,0.382-0.325,0.517-0.55
			c0.134-0.225,0.201-0.5,0.201-0.823c0-0.352-0.087-0.638-0.266-0.855c-0.176-0.219-0.396-0.383-0.664-0.497
			c-0.268-0.113-0.555-0.19-0.866-0.232c-0.31-0.042-0.6-0.063-0.866-0.063h-2.492V59.287z"/>
		<path fill="#FF0A2B" d="M747.823,55.696l-5.619-8.577h4.099l3.167,5.599l3.36-5.599h3.906l-5.617,8.577v6.38h-3.296V55.696z"/>
		<path fill="#FF0A2B" d="M768.821,46l2.409,0.739l-6.338,16.457l-2.389-0.741L768.821,46z"/>
		<path fill="#FF0A2B" d="M778.94,47.119h5.787c0.761,0,1.482,0.074,2.165,0.222c0.684,0.147,1.281,0.395,1.797,0.739
			c0.515,0.346,0.92,0.811,1.225,1.395c0.303,0.584,0.455,1.312,0.455,2.186c0,1.057-0.275,1.954-0.826,2.693
			c-0.548,0.74-1.351,1.208-2.406,1.405l3.802,6.316h-3.951l-3.125-5.979h-1.627v5.979h-3.295V47.119z M782.235,53.309h1.943
			c0.296,0,0.608-0.011,0.94-0.032c0.329-0.021,0.632-0.084,0.896-0.19c0.27-0.106,0.491-0.271,0.666-0.497
			c0.177-0.225,0.264-0.541,0.264-0.951c0-0.38-0.076-0.682-0.231-0.908c-0.155-0.225-0.353-0.397-0.591-0.517
			c-0.24-0.119-0.514-0.201-0.825-0.243c-0.31-0.042-0.612-0.063-0.907-0.063h-2.155V53.309z"/>
		<path fill="#FF0A2B" d="M805.241,56.308c0,0.888-0.134,1.705-0.402,2.451c-0.268,0.746-0.665,1.394-1.192,1.943
			c-0.528,0.55-1.186,0.979-1.977,1.289c-0.788,0.309-1.696,0.464-2.725,0.464c-1.041,0-1.957-0.155-2.748-0.464
			c-0.786-0.31-1.444-0.739-1.973-1.289c-0.528-0.549-0.926-1.198-1.195-1.943c-0.267-0.747-0.398-1.563-0.398-2.451v-9.189h3.294
			v9.063c0,0.465,0.075,0.895,0.222,1.288c0.148,0.395,0.354,0.737,0.624,1.025c0.267,0.289,0.587,0.514,0.96,0.676
			s0.778,0.242,1.215,0.242c0.438,0,0.838-0.08,1.203-0.242c0.367-0.162,0.687-0.387,0.951-0.676
			c0.269-0.288,0.477-0.63,0.625-1.025c0.146-0.394,0.22-0.823,0.22-1.288v-9.063h3.297V56.308z"/>
		<path fill="#FF0A2B" d="M808.283,47.119h5.576c0.646,0,1.299,0.047,1.954,0.138c0.655,0.092,1.242,0.274,1.763,0.549
			c0.521,0.274,0.944,0.658,1.27,1.151c0.322,0.493,0.485,1.148,0.485,1.965c0,0.844-0.237,1.545-0.706,2.101
			c-0.474,0.557-1.096,0.954-1.872,1.194v0.042c0.493,0.071,0.94,0.208,1.343,0.413c0.401,0.204,0.745,0.464,1.034,0.781
			c0.287,0.316,0.509,0.687,0.666,1.11c0.153,0.421,0.231,0.873,0.231,1.352c0,0.789-0.168,1.447-0.507,1.975
			c-0.34,0.528-0.775,0.955-1.312,1.278c-0.533,0.324-1.137,0.557-1.805,0.696c-0.669,0.142-1.334,0.212-1.997,0.212h-6.124V47.119z
			 M811.578,53.097h2.386c0.256,0,0.505-0.027,0.75-0.084c0.249-0.055,0.469-0.147,0.666-0.274c0.195-0.127,0.355-0.297,0.476-0.506
			c0.12-0.212,0.178-0.465,0.178-0.761c0-0.309-0.066-0.566-0.197-0.771c-0.135-0.204-0.306-0.364-0.52-0.476
			c-0.21-0.113-0.451-0.194-0.719-0.243c-0.267-0.049-0.527-0.074-0.78-0.074h-2.239V53.097z M811.578,59.287h2.956
			c0.253,0,0.511-0.029,0.771-0.084c0.262-0.057,0.497-0.155,0.709-0.296c0.21-0.141,0.382-0.325,0.516-0.55s0.202-0.5,0.202-0.823
			c0-0.352-0.088-0.638-0.264-0.855c-0.177-0.219-0.398-0.383-0.666-0.497c-0.267-0.113-0.557-0.19-0.867-0.232
			c-0.311-0.042-0.598-0.063-0.865-0.063h-2.492V59.287z"/>
		<path fill="#FF0A2B" d="M825.648,55.696l-5.621-8.577h4.098l3.17,5.599l3.358-5.599h3.908l-5.618,8.577v6.38h-3.295V55.696z"/>
		<path fill="#FF0A2B" d="M841.111,54.597c0-1.197,0.2-2.281,0.603-3.253c0.4-0.972,0.961-1.799,1.679-2.482
			c0.719-0.684,1.57-1.208,2.557-1.574c0.985-0.366,2.062-0.55,3.232-0.55s2.245,0.184,3.23,0.55
			c0.986,0.366,1.839,0.89,2.558,1.574c0.72,0.683,1.277,1.51,1.68,2.482c0.399,0.972,0.601,2.056,0.601,3.253
			s-0.201,2.281-0.601,3.253c-0.402,0.971-0.96,1.799-1.68,2.482c-0.719,0.683-1.571,1.208-2.558,1.574
			c-0.985,0.366-2.061,0.549-3.23,0.549s-2.247-0.183-3.232-0.549c-0.986-0.366-1.838-0.891-2.557-1.574
			c-0.718-0.683-1.278-1.511-1.679-2.482C841.312,56.878,841.111,55.794,841.111,54.597z M844.533,54.597
			c0,0.705,0.109,1.349,0.328,1.933c0.219,0.585,0.53,1.091,0.94,1.521c0.407,0.429,0.897,0.763,1.468,1.004
			c0.571,0.239,1.207,0.358,1.912,0.358c0.702,0,1.34-0.119,1.91-0.358c0.572-0.241,1.06-0.575,1.469-1.004
			c0.408-0.43,0.722-0.936,0.941-1.521c0.218-0.584,0.326-1.229,0.326-1.933c0-0.689-0.108-1.331-0.326-1.921
			c-0.22-0.592-0.533-1.102-0.941-1.532c-0.409-0.43-0.896-0.764-1.469-1.003c-0.57-0.241-1.208-0.36-1.91-0.36
			c-0.705,0-1.341,0.119-1.912,0.36c-0.57,0.239-1.061,0.573-1.468,1.003c-0.41,0.43-0.722,0.94-0.94,1.532
			C844.643,53.267,844.533,53.908,844.533,54.597z"/>
		<path fill="#FF0A2B" d="M859.489,47.119h4.479l6.357,10.394h0.043V47.119h3.295v14.957h-4.31l-6.528-10.647h-0.04v10.647h-3.296
			V47.119z"/>
		<path fill="#FF0A2B" d="M882.959,47.119h5.789c0.759,0,1.481,0.074,2.163,0.222c0.683,0.147,1.282,0.395,1.797,0.739
			c0.514,0.346,0.922,0.811,1.224,1.395c0.305,0.584,0.456,1.312,0.456,2.186c0,1.057-0.274,1.954-0.826,2.693
			c-0.548,0.74-1.352,1.208-2.408,1.405l3.804,6.316h-3.95l-3.126-5.979h-1.626v5.979h-3.296V47.119z M886.255,53.309h1.942
			c0.295,0,0.607-0.011,0.941-0.032c0.33-0.021,0.629-0.084,0.896-0.19s0.49-0.271,0.664-0.497c0.178-0.225,0.267-0.541,0.267-0.951
			c0-0.38-0.078-0.682-0.233-0.908c-0.155-0.225-0.353-0.397-0.591-0.517c-0.241-0.119-0.515-0.201-0.825-0.243
			s-0.612-0.063-0.908-0.063h-2.153V53.309z"/>
		<path fill="#FF0A2B" d="M901.569,47.119h2.727l6.507,14.957h-3.718l-1.291-3.168h-5.809l-1.246,3.168h-3.631L901.569,47.119z
			 M902.836,51.471l-1.815,4.648h3.653L902.836,51.471z"/>
		<path fill="#FF0A2B" d="M912.258,47.119h3.296v14.957h-3.296V47.119z"/>
		<path fill="#FF0A2B" d="M918.68,47.119h3.296v11.915h6.105v3.042h-9.401V47.119z"/>
		<path fill="#FF0A2B" d="M937.293,50.774c-0.267-0.337-0.632-0.588-1.088-0.751c-0.458-0.161-0.894-0.242-1.3-0.242
			c-0.238,0-0.487,0.028-0.739,0.084c-0.256,0.057-0.494,0.145-0.719,0.264c-0.226,0.121-0.41,0.279-0.549,0.475
			c-0.141,0.199-0.21,0.437-0.21,0.719c0,0.451,0.168,0.796,0.506,1.035c0.337,0.24,0.764,0.444,1.277,0.613
			c0.515,0.168,1.068,0.338,1.658,0.507c0.592,0.169,1.145,0.409,1.658,0.718c0.514,0.311,0.94,0.725,1.279,1.246
			c0.337,0.521,0.505,1.218,0.505,2.092c0,0.831-0.155,1.557-0.465,2.175c-0.309,0.621-0.728,1.135-1.256,1.543
			c-0.527,0.408-1.139,0.71-1.838,0.907c-0.695,0.198-1.433,0.295-2.207,0.295c-0.972,0-1.873-0.148-2.705-0.444
			c-0.829-0.295-1.604-0.774-2.324-1.436l2.346-2.577c0.338,0.451,0.764,0.799,1.277,1.045c0.517,0.247,1.047,0.37,1.596,0.37
			c0.269,0,0.539-0.03,0.814-0.094c0.272-0.064,0.521-0.158,0.738-0.286c0.22-0.126,0.395-0.289,0.528-0.486
			c0.135-0.197,0.201-0.429,0.201-0.697c0-0.451-0.173-0.807-0.516-1.066c-0.347-0.261-0.78-0.483-1.302-0.666
			c-0.521-0.184-1.084-0.367-1.688-0.55c-0.607-0.183-1.171-0.43-1.69-0.74c-0.521-0.31-0.955-0.718-1.3-1.225
			c-0.346-0.507-0.519-1.176-0.519-2.007c0-0.803,0.159-1.508,0.479-2.112c0.314-0.606,0.737-1.112,1.266-1.521
			s1.137-0.715,1.827-0.919c0.689-0.204,1.401-0.306,2.134-0.306c0.845,0,1.66,0.119,2.45,0.359c0.788,0.239,1.5,0.64,2.132,1.203
			L937.293,50.774z"/>
	</g>
	<g>
		<path fill="#FF0A2B" d="M725.213,120.502h6.131c0.857,0,1.666,0.078,2.425,0.234c0.764,0.156,1.429,0.424,1.995,0.805
			c0.568,0.38,1.018,0.893,1.354,1.539c0.335,0.645,0.501,1.457,0.501,2.436c0,0.963-0.155,1.772-0.468,2.425
			c-0.31,0.653-0.738,1.174-1.281,1.563c-0.544,0.388-1.189,0.665-1.937,0.828c-0.746,0.164-1.553,0.245-2.426,0.245h-2.655v6.436
			h-3.639V120.502z M728.852,127.498h2.423c0.327,0,0.644-0.031,0.945-0.092c0.302-0.063,0.574-0.167,0.818-0.315
			c0.238-0.148,0.434-0.352,0.582-0.606c0.146-0.256,0.219-0.579,0.219-0.968c0-0.42-0.095-0.758-0.29-1.014
			c-0.194-0.257-0.442-0.456-0.748-0.596c-0.301-0.14-0.64-0.229-1.013-0.268c-0.374-0.039-0.729-0.058-1.072-0.058h-1.864V127.498z
			"/>
		<path fill="#FF0A2B" d="M739.904,120.502h3.637v6.156h7.065v-6.156h3.637v16.51h-3.637v-7.135h-7.065v7.135h-3.637V120.502z"/>
		<path fill="#FF0A2B" d="M757.602,120.502h6.13c0.855,0,1.665,0.078,2.427,0.234c0.764,0.156,1.428,0.424,1.995,0.805
			c0.568,0.38,1.019,0.893,1.352,1.539c0.335,0.645,0.501,1.457,0.501,2.436c0,0.963-0.156,1.772-0.467,2.425
			c-0.312,0.653-0.737,1.174-1.283,1.563c-0.541,0.388-1.188,0.665-1.933,0.828c-0.748,0.164-1.557,0.245-2.427,0.245h-2.658v6.436
			h-3.637V120.502z M761.238,127.498h2.426c0.326,0,0.642-0.031,0.943-0.092c0.303-0.063,0.575-0.167,0.816-0.315
			c0.241-0.148,0.438-0.352,0.584-0.606c0.146-0.256,0.221-0.579,0.221-0.968c0-0.42-0.099-0.758-0.291-1.014
			c-0.195-0.257-0.444-0.456-0.747-0.596c-0.303-0.14-0.64-0.229-1.014-0.268c-0.373-0.039-0.73-0.058-1.071-0.058h-1.867V127.498z"
			/>
		<path fill="#FF0A2B" d="M787.354,124.537c-0.294-0.373-0.696-0.649-1.199-0.829c-0.509-0.179-0.986-0.267-1.437-0.267
			c-0.263,0-0.536,0.031-0.814,0.093c-0.281,0.062-0.544,0.158-0.794,0.291c-0.248,0.133-0.452,0.308-0.604,0.525
			c-0.157,0.218-0.234,0.481-0.234,0.793c0,0.498,0.186,0.879,0.56,1.143c0.372,0.265,0.843,0.49,1.409,0.677
			c0.568,0.186,1.179,0.372,1.832,0.56c0.653,0.187,1.263,0.451,1.829,0.792c0.567,0.342,1.038,0.801,1.413,1.376
			c0.371,0.575,0.56,1.344,0.56,2.309c0,0.917-0.172,1.717-0.514,2.401s-0.806,1.252-1.388,1.703
			c-0.584,0.451-1.258,0.784-2.028,1.001c-0.77,0.218-1.583,0.326-2.438,0.326c-1.073,0-2.068-0.163-2.985-0.489
			c-0.917-0.327-1.773-0.854-2.565-1.586l2.589-2.845c0.373,0.498,0.845,0.883,1.41,1.154c0.568,0.272,1.155,0.409,1.763,0.409
			c0.294,0,0.593-0.035,0.897-0.104c0.301-0.07,0.574-0.175,0.816-0.315c0.24-0.139,0.434-0.318,0.581-0.535
			c0.149-0.219,0.223-0.476,0.223-0.771c0-0.497-0.191-0.89-0.57-1.177c-0.382-0.287-0.861-0.533-1.435-0.734
			c-0.576-0.203-1.197-0.405-1.865-0.607c-0.671-0.203-1.291-0.474-1.865-0.816c-0.576-0.343-1.054-0.793-1.437-1.354
			c-0.381-0.559-0.571-1.298-0.571-2.215c0-0.886,0.174-1.664,0.526-2.332c0.35-0.669,0.815-1.229,1.399-1.68
			c0.583-0.451,1.254-0.789,2.016-1.015c0.762-0.224,1.547-0.337,2.355-0.337c0.932,0,1.832,0.131,2.705,0.396
			c0.87,0.265,1.655,0.708,2.354,1.329L787.354,124.537z"/>
		<path fill="#FF0A2B" d="M796.635,129.97l-6.202-9.468h4.523l3.497,6.18l3.708-6.18h4.313l-6.2,9.468v7.042h-3.64V129.97z"/>
		<path fill="#FF0A2B" d="M807.688,120.502h5.504l3.801,10.774h0.046l3.824-10.774h5.479v16.51h-3.637V124.35h-0.044l-4.34,12.662
			h-2.773l-4.176-12.662h-0.048v12.662h-3.637V120.502z"/>
		<path fill="#FF0A2B" d="M829.705,120.502h6.13c0.856,0,1.663,0.078,2.425,0.234s1.427,0.424,1.993,0.805
			c0.569,0.38,1.021,0.893,1.354,1.539c0.333,0.645,0.501,1.457,0.501,2.436c0,0.963-0.155,1.772-0.468,2.425
			c-0.31,0.653-0.738,1.174-1.283,1.563c-0.541,0.388-1.186,0.665-1.935,0.828c-0.746,0.164-1.557,0.245-2.424,0.245h-2.658v6.436
			h-3.636V120.502z M833.341,127.498h2.424c0.327,0,0.642-0.031,0.944-0.092c0.305-0.063,0.575-0.167,0.815-0.315
			c0.241-0.148,0.437-0.352,0.586-0.606c0.145-0.256,0.219-0.579,0.219-0.968c0-0.42-0.097-0.758-0.29-1.014
			c-0.194-0.257-0.443-0.456-0.748-0.596c-0.3-0.14-0.639-0.229-1.013-0.268c-0.374-0.039-0.731-0.058-1.073-0.058h-1.864V127.498z"
			/>
		<path fill="#FF0A2B" d="M844.392,120.502h3.639v6.156h7.066v-6.156h3.637v16.51h-3.637v-7.135h-7.066v7.135h-3.639V120.502z"/>
		<path fill="#FF0A2B" d="M861.204,128.757c0-1.32,0.223-2.518,0.665-3.592c0.44-1.071,1.061-1.984,1.854-2.738
			s1.732-1.333,2.822-1.738c1.087-0.404,2.278-0.606,3.566-0.606c1.292,0,2.479,0.203,3.57,0.606
			c1.086,0.404,2.026,0.984,2.819,1.738c0.795,0.754,1.411,1.667,1.855,2.738c0.442,1.074,0.663,2.272,0.663,3.592
			c0,1.322-0.221,2.519-0.663,3.592c-0.444,1.073-1.061,1.986-1.855,2.74c-0.793,0.754-1.733,1.334-2.819,1.737
			c-1.091,0.404-2.278,0.606-3.57,0.606c-1.288,0-2.479-0.202-3.566-0.606c-1.09-0.403-2.029-0.983-2.822-1.737
			c-0.793-0.753-1.413-1.667-1.854-2.74C861.427,131.276,861.204,130.079,861.204,128.757z M864.981,128.757
			c0,0.778,0.12,1.49,0.361,2.135c0.242,0.644,0.587,1.205,1.038,1.678c0.451,0.475,0.991,0.844,1.621,1.108
			c0.631,0.264,1.332,0.396,2.109,0.396c0.776,0,1.481-0.132,2.112-0.396c0.63-0.265,1.168-0.634,1.62-1.108
			c0.449-0.473,0.796-1.034,1.037-1.678c0.241-0.645,0.361-1.356,0.361-2.135c0-0.76-0.12-1.468-0.361-2.121
			c-0.241-0.652-0.588-1.217-1.037-1.69c-0.452-0.475-0.99-0.844-1.62-1.108c-0.631-0.265-1.336-0.396-2.112-0.396
			c-0.777,0-1.479,0.131-2.109,0.396c-0.63,0.264-1.17,0.633-1.621,1.108c-0.451,0.473-0.796,1.038-1.038,1.69
			C865.102,127.289,864.981,127.997,864.981,128.757z"/>
		<path fill="#FF0A2B" d="M881.492,120.502h4.944l7.016,11.475h0.048v-11.475h3.637v16.51h-4.756l-7.206-11.752h-0.046v11.752
			h-3.637V120.502z"/>
		<path fill="#FF0A2B" d="M904.554,129.97l-6.203-9.468h4.523l3.497,6.18l3.709-6.18h4.313l-6.2,9.468v7.042h-3.64V129.97z"/>
	</g>
	<g>
		<path fill="#FF0A2B" d="M731.367,196.146h4.826c0.675,0,1.311,0.062,1.909,0.184c0.6,0.122,1.123,0.333,1.57,0.632
			c0.445,0.3,0.802,0.704,1.063,1.212c0.263,0.507,0.395,1.146,0.395,1.917c0,0.759-0.121,1.395-0.367,1.909
			c-0.245,0.514-0.582,0.924-1.011,1.23c-0.426,0.305-0.935,0.522-1.522,0.651c-0.587,0.129-1.223,0.193-1.909,0.193h-2.092v5.065
			h-2.862V196.146z M734.229,201.651h1.91c0.257,0,0.505-0.023,0.74-0.073c0.241-0.049,0.454-0.131,0.646-0.248
			c0.188-0.117,0.342-0.276,0.459-0.478c0.114-0.201,0.172-0.456,0.172-0.762c0-0.331-0.075-0.597-0.228-0.798
			c-0.153-0.202-0.35-0.357-0.59-0.469c-0.236-0.109-0.501-0.18-0.796-0.211c-0.295-0.03-0.575-0.045-0.844-0.045h-1.47V201.651z"/>
		<path fill="#FF0A2B" d="M746.122,203.596l-4.882-7.451h3.561l2.752,4.864l2.919-4.864h3.395l-4.882,7.451v5.542h-2.862V203.596z"
			/>
		<path fill="#FF0A2B" d="M757.336,198.679h-3.707v-2.533h10.277v2.533h-3.708v10.46h-2.862V198.679z"/>
		<path fill="#FF0A2B" d="M765.355,196.146h2.863v4.845h5.561v-4.845h2.861v12.993h-2.861v-5.616h-5.561v5.616h-2.863V196.146z"/>
		<path fill="#FF0A2B" d="M778.585,202.642c0-1.039,0.175-1.981,0.524-2.826c0.347-0.844,0.834-1.562,1.459-2.156
			c0.623-0.594,1.364-1.049,2.221-1.367c0.855-0.318,1.791-0.478,2.808-0.478c1.015,0,1.95,0.159,2.807,0.478
			s1.598,0.773,2.223,1.367c0.622,0.594,1.109,1.312,1.457,2.156c0.351,0.844,0.524,1.787,0.524,2.826
			c0,1.041-0.174,1.982-0.524,2.827c-0.348,0.844-0.835,1.563-1.457,2.156c-0.625,0.593-1.366,1.05-2.223,1.368
			c-0.856,0.318-1.792,0.478-2.807,0.478c-1.017,0-1.952-0.16-2.808-0.478c-0.856-0.317-1.598-0.774-2.221-1.368
			c-0.625-0.593-1.112-1.312-1.459-2.156C778.76,204.624,778.585,203.683,778.585,202.642z M781.559,202.642
			c0,0.613,0.095,1.172,0.286,1.68c0.188,0.507,0.462,0.948,0.815,1.32c0.354,0.374,0.781,0.664,1.276,0.872
			c0.496,0.207,1.049,0.312,1.66,0.312c0.61,0,1.166-0.105,1.661-0.312c0.496-0.208,0.92-0.498,1.274-0.872
			c0.354-0.372,0.629-0.813,0.817-1.32c0.191-0.508,0.284-1.067,0.284-1.68c0-0.6-0.093-1.156-0.284-1.669
			c-0.188-0.514-0.463-0.958-0.817-1.332c-0.354-0.373-0.778-0.663-1.274-0.871c-0.495-0.209-1.051-0.312-1.661-0.312
			c-0.611,0-1.164,0.104-1.66,0.312c-0.495,0.208-0.922,0.498-1.276,0.871c-0.354,0.374-0.628,0.818-0.815,1.332
			C781.653,201.486,781.559,202.042,781.559,202.642z"/>
		<path fill="#FF0A2B" d="M794.551,196.146h3.891l5.523,9.029h0.037v-9.029h2.863v12.993h-3.744l-5.67-9.248h-0.035v9.248h-2.865
			V196.146z"/>
		<path fill="#FF0A2B" d="M819.051,195.173l2.093,0.642l-5.504,14.297l-2.075-0.643L819.051,195.173z"/>
		<path fill="#FF0A2B" d="M827.843,196.146h4.293c1.04,0,2.026,0.116,2.964,0.349c0.936,0.233,1.753,0.609,2.449,1.129
			c0.696,0.519,1.253,1.195,1.662,2.027c0.41,0.833,0.614,1.841,0.614,3.029c0,1.053-0.199,1.979-0.597,2.781
			c-0.398,0.8-0.934,1.474-1.605,2.018c-0.674,0.545-1.45,0.958-2.33,1.239c-0.883,0.282-1.807,0.421-2.773,0.421h-4.677V196.146z
			 M830.705,206.496h1.484c0.662,0,1.277-0.067,1.845-0.202c0.569-0.134,1.062-0.357,1.479-0.669
			c0.416-0.312,0.742-0.723,0.981-1.23c0.237-0.507,0.357-1.128,0.357-1.861c0-0.637-0.12-1.191-0.357-1.661
			c-0.239-0.472-0.561-0.86-0.966-1.166c-0.401-0.306-0.876-0.536-1.422-0.689c-0.544-0.151-1.115-0.228-1.715-0.228h-1.688V206.496
			z"/>
		<path fill="#FF0A2B" d="M848.486,204.789c0,0.599-0.052,1.182-0.155,1.743c-0.105,0.563-0.304,1.063-0.599,1.496
			c-0.291,0.435-0.712,0.785-1.255,1.047c-0.545,0.263-1.258,0.395-2.14,0.395c-1.028,0-1.895-0.246-2.605-0.735
			c-0.709-0.489-1.168-1.253-1.375-2.293l2.623-0.643c0.037,0.319,0.182,0.588,0.431,0.808c0.251,0.22,0.536,0.331,0.854,0.331
			c0.331,0,0.587-0.083,0.771-0.248c0.184-0.166,0.319-0.37,0.403-0.614c0.086-0.245,0.138-0.511,0.156-0.799
			c0.018-0.287,0.028-0.553,0.028-0.797v-8.333h2.862V204.789z"/>
		<path fill="#FF0A2B" d="M855.223,196.146h2.366l5.653,12.993h-3.23l-1.12-2.752h-5.047l-1.082,2.752h-3.157L855.223,196.146z
			 M856.322,199.926l-1.578,4.038h3.175L856.322,199.926z"/>
		<path fill="#FF0A2B" d="M864.544,196.146h3.891l5.522,9.029h0.037v-9.029h2.863v12.993h-3.742l-5.673-9.248h-0.035v9.248h-2.863
			V196.146z"/>
		<path fill="#FF0A2B" d="M891.264,208.222c-0.843,0.44-1.725,0.758-2.641,0.954c-0.919,0.196-1.854,0.294-2.809,0.294
			c-1.017,0-1.952-0.16-2.809-0.478c-0.857-0.317-1.596-0.774-2.22-1.368c-0.625-0.593-1.11-1.312-1.459-2.156
			c-0.348-0.845-0.522-1.786-0.522-2.827c0-1.039,0.175-1.981,0.522-2.826c0.349-0.844,0.834-1.562,1.459-2.156
			c0.624-0.594,1.362-1.049,2.22-1.367c0.856-0.318,1.792-0.478,2.809-0.478c1.039,0,1.996,0.125,2.873,0.377
			c0.873,0.25,1.644,0.681,2.303,1.292l-2.02,2.203c-0.393-0.403-0.834-0.709-1.32-0.917c-0.49-0.209-1.103-0.312-1.836-0.312
			c-0.611,0-1.165,0.104-1.661,0.312c-0.495,0.208-0.921,0.498-1.275,0.871c-0.355,0.374-0.627,0.818-0.816,1.332
			c-0.19,0.514-0.286,1.07-0.286,1.669c0,0.613,0.096,1.172,0.286,1.68c0.189,0.507,0.461,0.948,0.816,1.32
			c0.354,0.374,0.78,0.664,1.275,0.872c0.496,0.207,1.05,0.312,1.661,0.312c0.625,0,1.162-0.071,1.614-0.211
			c0.453-0.14,0.813-0.285,1.082-0.431v-2.111h-2.329v-2.643h5.082V208.222z"/>
		<path fill="#FF0A2B" d="M893.082,202.642c0-1.039,0.175-1.981,0.522-2.826c0.349-0.844,0.835-1.562,1.458-2.156
			c0.625-0.594,1.364-1.049,2.221-1.367c0.857-0.318,1.793-0.478,2.809-0.478c1.018,0,1.951,0.159,2.809,0.478
			c0.856,0.318,1.596,0.773,2.22,1.367c0.626,0.594,1.109,1.312,1.461,2.156c0.347,0.844,0.521,1.787,0.521,2.826
			c0,1.041-0.174,1.982-0.521,2.827c-0.352,0.844-0.835,1.563-1.461,2.156c-0.624,0.593-1.363,1.05-2.22,1.368
			c-0.857,0.318-1.791,0.478-2.809,0.478c-1.016,0-1.951-0.16-2.809-0.478c-0.856-0.317-1.596-0.774-2.221-1.368
			c-0.623-0.593-1.109-1.312-1.458-2.156C893.257,204.624,893.082,203.683,893.082,202.642z M896.055,202.642
			c0,0.613,0.094,1.172,0.285,1.68c0.188,0.507,0.461,0.948,0.817,1.32c0.353,0.374,0.778,0.664,1.274,0.872
			c0.495,0.207,1.049,0.312,1.66,0.312s1.166-0.105,1.661-0.312c0.497-0.208,0.92-0.498,1.276-0.872
			c0.354-0.372,0.627-0.813,0.816-1.32c0.189-0.508,0.285-1.067,0.285-1.68c0-0.6-0.096-1.156-0.285-1.669s-0.463-0.958-0.816-1.332
			c-0.356-0.373-0.779-0.663-1.276-0.871c-0.495-0.209-1.05-0.312-1.661-0.312s-1.165,0.104-1.66,0.312
			c-0.496,0.208-0.922,0.498-1.274,0.871c-0.356,0.374-0.629,0.818-0.817,1.332C896.148,201.486,896.055,202.042,896.055,202.642z"
			/>
	</g>
	<g>
		<path fill="#666666" d="M811.972,91.548c0-1.04,0.177-1.982,0.524-2.827c0.347-0.843,0.835-1.562,1.457-2.156
			c0.625-0.593,1.363-1.05,2.223-1.367c0.854-0.318,1.793-0.478,2.807-0.478c1.017,0,1.95,0.16,2.808,0.478
			c0.855,0.317,1.598,0.774,2.221,1.367c0.625,0.593,1.11,1.312,1.459,2.156c0.349,0.845,0.523,1.787,0.523,2.827
			s-0.175,1.981-0.523,2.827c-0.349,0.843-0.834,1.562-1.459,2.156c-0.623,0.594-1.365,1.05-2.221,1.367
			c-0.857,0.318-1.791,0.478-2.808,0.478c-1.014,0-1.953-0.16-2.807-0.478c-0.859-0.317-1.598-0.773-2.223-1.367
			c-0.622-0.593-1.11-1.312-1.457-2.156C812.148,93.53,811.972,92.588,811.972,91.548z M814.944,91.548
			c0,0.612,0.097,1.171,0.285,1.68c0.19,0.507,0.462,0.948,0.817,1.321c0.354,0.374,0.778,0.664,1.274,0.873
			c0.496,0.207,1.048,0.311,1.661,0.311c0.611,0,1.164-0.104,1.66-0.311c0.497-0.209,0.921-0.5,1.276-0.873
			c0.355-0.373,0.626-0.813,0.817-1.321c0.189-0.508,0.283-1.068,0.283-1.68c0-0.599-0.094-1.155-0.283-1.67
			c-0.191-0.514-0.462-0.958-0.817-1.33c-0.355-0.374-0.779-0.665-1.276-0.872c-0.496-0.208-1.049-0.313-1.66-0.313
			c-0.613,0-1.165,0.105-1.661,0.313c-0.496,0.207-0.921,0.498-1.274,0.872c-0.355,0.373-0.627,0.816-0.817,1.33
			C815.041,90.393,814.944,90.95,814.944,91.548z"/>
		<path fill="#666666" d="M838.894,93.036c0,0.77-0.114,1.479-0.349,2.129c-0.233,0.647-0.578,1.21-1.037,1.688
			c-0.457,0.478-1.03,0.85-1.717,1.12c-0.685,0.269-1.473,0.403-2.366,0.403c-0.905,0-1.701-0.135-2.388-0.403
			c-0.683-0.27-1.254-0.642-1.715-1.12c-0.459-0.477-0.803-1.04-1.036-1.688c-0.234-0.65-0.348-1.36-0.348-2.129v-7.984h2.863v7.874
			c0,0.403,0.063,0.777,0.191,1.119c0.13,0.342,0.307,0.64,0.542,0.89c0.232,0.25,0.51,0.447,0.833,0.587
			c0.325,0.141,0.677,0.211,1.057,0.211s0.728-0.071,1.046-0.211c0.318-0.14,0.596-0.336,0.825-0.587
			c0.233-0.25,0.413-0.548,0.543-0.89c0.128-0.342,0.192-0.716,0.192-1.119v-7.874h2.862V93.036z"/>
	</g>
	<g>
		<path fill="#666666" d="M813.494,173.7c0-1.041,0.175-1.982,0.522-2.827c0.348-0.843,0.835-1.562,1.459-2.156
			c0.625-0.594,1.363-1.049,2.222-1.368c0.854-0.317,1.792-0.477,2.809-0.477c1.014,0,1.948,0.16,2.807,0.477
			c0.855,0.319,1.596,0.774,2.221,1.368c0.623,0.594,1.109,1.312,1.459,2.156c0.347,0.845,0.521,1.787,0.521,2.827
			c0,1.04-0.175,1.982-0.521,2.826c-0.35,0.844-0.836,1.562-1.459,2.156c-0.625,0.593-1.365,1.049-2.221,1.367
			c-0.858,0.317-1.793,0.477-2.807,0.477c-1.017,0-1.954-0.16-2.809-0.477c-0.858-0.318-1.597-0.774-2.222-1.367
			c-0.624-0.594-1.111-1.312-1.459-2.156C813.669,175.682,813.494,174.74,813.494,173.7z M816.465,173.7
			c0,0.612,0.097,1.171,0.285,1.679c0.19,0.508,0.463,0.948,0.817,1.32c0.356,0.375,0.778,0.665,1.275,0.873
			c0.497,0.207,1.049,0.311,1.663,0.311c0.609,0,1.163-0.104,1.66-0.311c0.495-0.208,0.92-0.499,1.273-0.873
			c0.356-0.373,0.627-0.812,0.818-1.32c0.189-0.508,0.283-1.067,0.283-1.679c0-0.599-0.094-1.156-0.283-1.671
			c-0.191-0.513-0.462-0.957-0.818-1.33c-0.354-0.375-0.778-0.664-1.273-0.872c-0.497-0.209-1.051-0.312-1.66-0.312
			c-0.614,0-1.166,0.104-1.663,0.312c-0.497,0.208-0.919,0.497-1.275,0.872c-0.354,0.373-0.627,0.817-0.817,1.33
			C816.562,172.544,816.465,173.101,816.465,173.7z"/>
		<path fill="#666666" d="M840.416,175.187c0,0.771-0.116,1.479-0.351,2.129c-0.232,0.648-0.576,1.212-1.035,1.688
			c-0.459,0.478-1.031,0.85-1.717,1.12c-0.687,0.269-1.475,0.403-2.367,0.403c-0.905,0-1.701-0.135-2.388-0.403
			c-0.684-0.27-1.255-0.642-1.715-1.12c-0.46-0.477-0.803-1.04-1.036-1.688c-0.234-0.649-0.349-1.358-0.349-2.129v-7.984h2.864
			v7.874c0,0.404,0.063,0.777,0.192,1.12s0.307,0.64,0.541,0.89c0.231,0.251,0.509,0.448,0.833,0.589
			c0.324,0.139,0.679,0.209,1.057,0.209c0.379,0,0.728-0.07,1.045-0.209c0.319-0.141,0.597-0.338,0.827-0.589
			c0.233-0.25,0.413-0.547,0.542-0.89c0.128-0.343,0.191-0.716,0.191-1.12v-7.874h2.864V175.187z"/>
	</g>
	<rect x="701.115" y="68.953" fill="#FDBE00" width="238.457" height="1.939"/>
	<rect x="725.213" y="141.144" fill="#FDBE00" width="189.181" height="1.94"/>
	<rect x="730.785" y="214.818" fill="#FDBE00" width="176.316" height="1.94"/>
	<g>
		<g>
			
				<line fill="none" stroke="#009C3A" stroke-miterlimit="10" stroke-dasharray="2,2" x1="242" y1="194" x2="295.863" y2="158.917"/>
			<g>
				<polygon fill="#009C3A" points="297.362,163.891 301.875,155 291.919,155.535 				"/>
			</g>
		</g>
	</g>
	<g>
		<g>
			
				<line fill="none" stroke="#009C3A" stroke-width="0.75" stroke-miterlimit="10" stroke-dasharray="2,2" x1="421" y1="123.129" x2="486.618" y2="123.129"/>
			<g>
				<polygon fill="#009C3A" points="485.523,126.869 492,123.129 485.523,119.39 				"/>
			</g>
		</g>
	</g>
	<g>
		<g>
			
				<line fill="none" stroke="#686868" stroke-width="0.75" stroke-miterlimit="10" stroke-dasharray="2,2" x1="622" y1="129.98" x2="689.285" y2="129.98"/>
			<g>
				<polygon fill="#686868" points="688.191,133.72 694.667,129.98 688.191,126.24 				"/>
			</g>
		</g>
	</g>
	<g>
		<g>
			
				<line fill="none" stroke="#009C3A" stroke-width="0.75" stroke-miterlimit="10" stroke-dasharray="2,2" x1="622" y1="129.98" x2="684.723" y2="71.738"/>
			<g>
				<polygon fill="#009C3A" points="686.466,75.223 688.667,68.076 681.377,69.742 				"/>
			</g>
		</g>
	</g>
	<g>
		<g>
			
				<line fill="none" stroke="#009C3A" stroke-width="0.75" stroke-miterlimit="10" stroke-dasharray="2,2" x1="622" y1="129.98" x2="690.861" y2="198.837"/>
			<g>
				<polygon fill="#009C3A" points="687.443,200.708 694.667,202.642 692.732,195.418 				"/>
			</g>
		</g>
	</g>
	<g>
		<g>
			
				<line fill="none" stroke="#009C3A" stroke-miterlimit="10" stroke-dasharray="2,2" x1="242" y1="194" x2="291.479" y2="235.083"/>
			<g>
				<polygon fill="#009C3A" points="287.171,237.987 297,239.667 293.542,230.314 				"/>
			</g>
		</g>
	</g>
</g>
</svg>
