<?xml version="1.0" encoding="utf-8"?>
<!-- Generator: Adobe Illustrator 16.0.0, SVG Export Plug-In . SVG Version: 6.00 Build 0)  -->
<!DOCTYPE svg PUBLIC "-//W3C//DTD SVG 1.1//EN" "http://www.w3.org/Graphics/SVG/1.1/DTD/svg11.dtd">
<svg version="1.1" xmlns="http://www.w3.org/2000/svg" xmlns:xlink="http://www.w3.org/1999/xlink" x="0px" y="0px" width="633px"
	 height="280px" viewBox="0 0 633 280" enable-background="new 0 0 633 280" xml:space="preserve">
<g id="Calque_1" display="none">
	
		<image display="inline" overflow="visible" width="799" height="304" xlink:href="../../../../../../.Trash/old-simplon-roubaix-site/img/schema.png"  transform="matrix(1 0 0 1 23 28)">
	</image>
</g>
<g id="Calque_2">
</g>
<g id="Calque_3">
	<g>
		
			<circle fill="none" stroke="#FDBE00" stroke-miterlimit="10" stroke-dasharray="3.9728,3.9728" cx="100.989" cy="144.893" r="85.989"/>
	</g>
	<circle fill="#FF0A2B" cx="100.989" cy="144.893" r="80.109"/>
	<circle fill="none" stroke="#FDBE00" stroke-miterlimit="10" stroke-dasharray="4" cx="253.123" cy="89.771" r="47.771"/>
	<circle fill="none" stroke="#FDBE00" stroke-miterlimit="10" stroke-dasharray="4" cx="383.209" cy="89.771" r="47.772"/>
	<circle fill="#FF0A2B" cx="253.123" cy="89.771" r="43.362"/>
	<circle fill="none" stroke="#FDBE00" stroke-miterlimit="10" stroke-dasharray="4" cx="253.123" cy="200.994" r="47.771"/>
	<circle fill="#FF0A2B" cx="253.123" cy="200.994" r="43.362"/>
	<circle fill="#FF0A2B" cx="383.208" cy="89.771" r="43.362"/>
	<g>
		<path fill="#FFFFFF" d="M64.728,121.104h-5.521v-2.179h13.367v2.179h-5.521v14.965h-2.325V121.104z"/>
		<path fill="#FFFFFF" d="M75.042,118.925h6.03c1.098,0,2.001,0.15,2.712,0.449c0.71,0.298,1.272,0.678,1.683,1.138
			c0.412,0.46,0.699,0.977,0.86,1.55s0.243,1.126,0.243,1.658c0,0.549-0.098,1.078-0.291,1.587c-0.194,0.508-0.473,0.968-0.835,1.38
			c-0.363,0.412-0.808,0.758-1.332,1.042c-0.524,0.282-1.11,0.457-1.756,0.521l4.868,7.821h-2.906l-4.359-7.555h-2.59v7.555h-2.325
			V118.925z M77.368,126.48h3.051c0.452,0,0.899-0.036,1.344-0.109c0.445-0.072,0.839-0.206,1.186-0.399
			c0.348-0.194,0.626-0.472,0.836-0.836s0.315-0.835,0.315-1.417s-0.105-1.053-0.315-1.416c-0.21-0.364-0.488-0.643-0.836-0.835
			c-0.347-0.194-0.741-0.327-1.186-0.4c-0.444-0.073-0.892-0.108-1.344-0.108h-3.051V126.48z"/>
		<path fill="#FFFFFF" d="M97.709,136.505c-1.308,0-2.511-0.229-3.608-0.69c-1.099-0.46-2.039-1.094-2.821-1.9
			c-0.784-0.807-1.397-1.76-1.841-2.857c-0.444-1.098-0.666-2.284-0.666-3.56c0-1.275,0.222-2.461,0.666-3.56
			c0.443-1.098,1.057-2.049,1.841-2.857c0.782-0.807,1.722-1.44,2.821-1.9c1.098-0.46,2.301-0.69,3.608-0.69
			c1.307,0,2.51,0.229,3.607,0.69c1.098,0.46,2.039,1.093,2.822,1.9c0.783,0.808,1.396,1.76,1.84,2.857
			c0.444,1.099,0.666,2.285,0.666,3.56c0,1.276-0.222,2.462-0.666,3.56c-0.443,1.098-1.057,2.05-1.84,2.857
			c-0.783,0.807-1.724,1.44-2.822,1.9C100.219,136.276,99.016,136.505,97.709,136.505z M97.709,134.327
			c0.984,0,1.872-0.182,2.663-0.544c0.791-0.364,1.469-0.852,2.034-1.466c0.565-0.613,1.001-1.336,1.308-2.167
			c0.307-0.831,0.46-1.716,0.46-2.652s-0.153-1.82-0.46-2.652c-0.307-0.831-0.742-1.553-1.308-2.167
			c-0.564-0.613-1.243-1.102-2.034-1.465c-0.792-0.363-1.679-0.545-2.663-0.545c-0.985,0-1.873,0.182-2.665,0.545
			c-0.792,0.363-1.469,0.852-2.034,1.465c-0.566,0.614-1.001,1.336-1.308,2.167c-0.308,0.832-0.46,1.716-0.46,2.652
			s0.152,1.821,0.46,2.652c0.306,0.831,0.742,1.554,1.308,2.167c0.564,0.614,1.242,1.102,2.034,1.466
			C95.836,134.145,96.724,134.327,97.709,134.327z"/>
		<path fill="#FFFFFF" d="M109.984,118.925h3.052l9.444,14.093h0.049v-14.093h2.324v17.145h-2.954l-9.541-14.093h-0.049v14.093
			h-2.326V118.925z"/>
		<path fill="#FFFFFF" d="M141.198,122.63c-0.484-0.629-1.098-1.113-1.84-1.453c-0.743-0.339-1.51-0.508-2.3-0.508
			c-0.969,0-1.845,0.182-2.628,0.545c-0.783,0.363-1.452,0.859-2.009,1.489c-0.558,0.63-0.99,1.369-1.296,2.216
			c-0.308,0.848-0.46,1.756-0.46,2.725c0,0.903,0.145,1.759,0.435,2.566s0.71,1.518,1.26,2.13c0.548,0.614,1.219,1.099,2.01,1.453
			c0.791,0.355,1.687,0.533,2.688,0.533c0.984,0,1.849-0.202,2.591-0.606c0.742-0.402,1.372-0.969,1.888-1.694l1.961,1.477
			c-0.129,0.177-0.355,0.431-0.678,0.762c-0.323,0.332-0.751,0.662-1.284,0.993c-0.532,0.331-1.173,0.622-1.924,0.872
			s-1.619,0.375-2.604,0.375c-1.356,0-2.579-0.258-3.669-0.774c-1.088-0.517-2.018-1.194-2.784-2.034
			c-0.767-0.84-1.352-1.789-1.755-2.846c-0.404-1.057-0.605-2.127-0.605-3.208c0-1.324,0.217-2.547,0.654-3.67
			c0.435-1.121,1.044-2.089,1.828-2.905c0.783-0.815,1.723-1.449,2.821-1.901c1.097-0.452,2.309-0.678,3.632-0.678
			c1.129,0,2.24,0.218,3.33,0.653c1.09,0.437,1.981,1.106,2.675,2.01L141.198,122.63z"/>
		<path fill="#FFFFFF" d="M56.965,151.689c-0.483-0.629-1.098-1.113-1.839-1.452c-0.743-0.339-1.51-0.508-2.301-0.508
			c-0.969,0-1.844,0.181-2.628,0.545c-0.782,0.362-1.452,0.859-2.009,1.489c-0.558,0.629-0.989,1.368-1.296,2.216
			c-0.308,0.847-0.46,1.755-0.46,2.724c0,0.904,0.145,1.76,0.436,2.567c0.291,0.807,0.71,1.517,1.259,2.13
			c0.549,0.614,1.219,1.099,2.01,1.454c0.792,0.355,1.687,0.533,2.688,0.533c0.984,0,1.848-0.202,2.592-0.605
			c0.741-0.403,1.371-0.969,1.888-1.695l1.961,1.477c-0.129,0.178-0.354,0.432-0.678,0.763c-0.323,0.331-0.75,0.663-1.283,0.994
			c-0.532,0.331-1.173,0.621-1.925,0.871c-0.75,0.25-1.619,0.375-2.603,0.375c-1.357,0-2.58-0.258-3.669-0.774
			c-1.089-0.516-2.018-1.194-2.785-2.034c-0.767-0.839-1.352-1.788-1.756-2.846c-0.403-1.057-0.605-2.127-0.605-3.208
			c0-1.324,0.217-2.546,0.654-3.669c0.436-1.122,1.045-2.09,1.828-2.906c0.783-0.815,1.724-1.448,2.821-1.901
			c1.097-0.452,2.308-0.678,3.632-0.678c1.13,0,2.24,0.218,3.33,0.653c1.089,0.437,1.981,1.106,2.675,2.01L56.965,151.689z"/>
		<path fill="#FFFFFF" d="M69.945,165.564c-1.308,0-2.511-0.23-3.608-0.69c-1.099-0.459-2.039-1.093-2.822-1.9
			c-0.783-0.807-1.397-1.76-1.84-2.857c-0.444-1.097-0.666-2.284-0.666-3.56c0-1.275,0.222-2.461,0.666-3.56
			c0.443-1.098,1.057-2.05,1.84-2.858c0.783-0.807,1.723-1.44,2.822-1.9c1.097-0.46,2.3-0.69,3.608-0.69s2.51,0.23,3.607,0.69
			c1.098,0.46,2.039,1.094,2.822,1.9c0.782,0.808,1.396,1.76,1.839,2.858c0.444,1.098,0.666,2.284,0.666,3.56
			c0,1.276-0.222,2.463-0.666,3.56c-0.443,1.098-1.057,2.051-1.839,2.857c-0.783,0.807-1.724,1.441-2.822,1.9
			C72.455,165.334,71.253,165.564,69.945,165.564z M69.945,163.386c0.984,0,1.872-0.182,2.664-0.545
			c0.791-0.363,1.469-0.851,2.034-1.465c0.565-0.614,1-1.336,1.307-2.168c0.308-0.831,0.46-1.715,0.46-2.651s-0.153-1.82-0.46-2.651
			c-0.307-0.832-0.742-1.554-1.307-2.168c-0.564-0.613-1.243-1.102-2.034-1.464c-0.792-0.364-1.679-0.545-2.664-0.545
			c-0.986,0-1.873,0.181-2.664,0.545c-0.792,0.362-1.47,0.851-2.034,1.464c-0.566,0.614-1.001,1.336-1.308,2.168
			c-0.308,0.832-0.46,1.715-0.46,2.651s0.153,1.821,0.46,2.651c0.306,0.832,0.742,1.554,1.308,2.168
			c0.564,0.614,1.242,1.102,2.034,1.465C68.072,163.204,68.959,163.386,69.945,163.386z"/>
		<path fill="#FFFFFF" d="M82.052,147.984h3.464l5.448,12.979h0.097l5.399-12.979h3.463v17.145h-2.324v-14.093H97.55l-5.788,14.093
			h-1.55l-5.787-14.093h-0.049v14.093h-2.325V147.984z"/>
		<path fill="#FFFFFF" d="M103.991,147.984h3.463l5.448,12.979H113l5.399-12.979h3.462v17.145h-2.324v-14.093h-0.048l-5.788,14.093
			h-1.55l-5.787-14.093h-0.047v14.093h-2.326V147.984z"/>
		<path fill="#FFFFFF" d="M128.11,147.984v10.509c0,0.534,0.073,1.086,0.218,1.66c0.146,0.572,0.388,1.102,0.727,1.585
			c0.339,0.485,0.782,0.88,1.332,1.187c0.549,0.307,1.227,0.46,2.035,0.46c0.807,0,1.485-0.153,2.033-0.46
			c0.549-0.307,0.993-0.702,1.333-1.187c0.339-0.484,0.581-1.013,0.726-1.585c0.146-0.574,0.218-1.126,0.218-1.66v-10.509h2.325
			v10.873c0,1.001-0.169,1.909-0.509,2.725c-0.339,0.815-0.808,1.521-1.404,2.118c-0.598,0.597-1.3,1.057-2.107,1.38
			c-0.807,0.322-1.679,0.484-2.615,0.484c-0.938,0-1.808-0.162-2.615-0.484c-0.808-0.323-1.51-0.783-2.108-1.38
			c-0.597-0.597-1.065-1.303-1.404-2.118c-0.339-0.816-0.509-1.724-0.509-2.725v-10.873H128.11z"/>
		<path fill="#FFFFFF" d="M143.147,147.984h3.051l9.444,14.093h0.049v-14.093h2.324v17.145h-2.954l-9.541-14.093h-0.049v14.093
			h-2.325V147.984z"/>
	</g>
</g>
<g id="Calque_4">
	<g>
		<path fill="#FFFFFF" d="M214.99,81.476h2.708c0.548,0,1.029,0.063,1.441,0.187c0.413,0.125,0.771,0.291,1.075,0.499
			c0.303,0.208,0.555,0.448,0.756,0.718c0.201,0.271,0.36,0.548,0.477,0.833c0.117,0.285,0.201,0.57,0.252,0.855
			c0.051,0.285,0.076,0.548,0.076,0.789c0,0.498-0.091,0.979-0.274,1.443c-0.183,0.464-0.453,0.876-0.811,1.239
			c-0.358,0.362-0.803,0.652-1.332,0.872c-0.53,0.219-1.143,0.329-1.837,0.329h-2.533V81.476z M216.042,88.252h1.327
			c0.446,0,0.869-0.06,1.267-0.18c0.398-0.121,0.747-0.302,1.047-0.543s0.537-0.542,0.713-0.904
			c0.175-0.362,0.264-0.785,0.264-1.267c0-0.248-0.041-0.539-0.121-0.872c-0.081-0.332-0.232-0.648-0.455-0.948
			c-0.224-0.299-0.532-0.554-0.927-0.762c-0.396-0.208-0.907-0.312-1.536-0.312h-1.579V88.252z"/>
		<path fill="#FFFFFF" d="M223.291,81.476h5.011v0.987h-3.958v2.314h3.684v0.986h-3.684v2.489h4.156v0.987h-5.208V81.476z"/>
		<path fill="#FFFFFF" d="M228.927,81.476h1.217l2.281,6.316h0.022l2.369-6.316h1.151l-3.059,7.763h-0.987L228.927,81.476z"/>
		<path fill="#FFFFFF" d="M236.898,81.476h5.012v0.987h-3.959v2.314h3.684v0.986h-3.684v2.489h4.156v0.987h-5.209V81.476z"/>
		<path fill="#FFFFFF" d="M243.598,81.476h1.053v6.776h3.564v0.987h-4.617V81.476z"/>
		<path fill="#FFFFFF" d="M252.853,89.437c-0.592,0-1.137-0.104-1.633-0.312c-0.498-0.208-0.924-0.495-1.278-0.861
			c-0.355-0.365-0.633-0.796-0.833-1.293c-0.201-0.498-0.302-1.034-0.302-1.613c0-0.577,0.101-1.114,0.302-1.612
			c0.201-0.497,0.479-0.928,0.833-1.294c0.354-0.365,0.78-0.652,1.278-0.86c0.497-0.208,1.041-0.312,1.633-0.312
			s1.136,0.104,1.634,0.312c0.497,0.208,0.923,0.495,1.278,0.86c0.354,0.366,0.632,0.797,0.833,1.294
			c0.202,0.498,0.302,1.035,0.302,1.612c0,0.579-0.101,1.115-0.302,1.613c-0.2,0.497-0.479,0.929-0.833,1.293
			c-0.355,0.366-0.781,0.652-1.278,0.861C253.989,89.333,253.445,89.437,252.853,89.437z M252.853,88.45
			c0.446,0,0.848-0.083,1.206-0.247c0.359-0.165,0.666-0.386,0.921-0.664s0.453-0.605,0.592-0.981
			c0.139-0.376,0.208-0.776,0.208-1.201c0-0.423-0.069-0.824-0.208-1.2c-0.139-0.377-0.336-0.704-0.592-0.982
			c-0.256-0.277-0.562-0.499-0.921-0.663c-0.358-0.165-0.76-0.247-1.206-0.247s-0.848,0.082-1.206,0.247
			c-0.358,0.164-0.666,0.385-0.921,0.663c-0.256,0.278-0.453,0.605-0.592,0.982c-0.139,0.376-0.208,0.776-0.208,1.2
			c0,0.425,0.069,0.825,0.208,1.201s0.336,0.704,0.592,0.981s0.563,0.499,0.921,0.664C252.005,88.367,252.407,88.45,252.853,88.45z"
			/>
		<path fill="#FFFFFF" d="M258.412,81.476h2.731c0.497,0,0.906,0.068,1.228,0.203s0.576,0.307,0.762,0.515
			c0.187,0.208,0.317,0.442,0.39,0.702s0.11,0.51,0.11,0.751c0,0.241-0.037,0.492-0.11,0.752c-0.073,0.259-0.203,0.493-0.39,0.702
			c-0.186,0.208-0.44,0.38-0.762,0.515s-0.731,0.203-1.228,0.203h-1.678v3.42h-1.053V81.476z M259.465,84.897h1.382
			c0.205,0,0.407-0.017,0.608-0.05c0.201-0.032,0.38-0.093,0.537-0.18c0.158-0.088,0.284-0.214,0.378-0.379
			c0.095-0.164,0.143-0.378,0.143-0.642c0-0.263-0.048-0.477-0.143-0.641c-0.095-0.165-0.221-0.291-0.378-0.378
			c-0.157-0.088-0.336-0.148-0.537-0.181c-0.201-0.033-0.403-0.049-0.608-0.049h-1.382V84.897z"/>
		<path fill="#FFFFFF" d="M264.915,81.476h2.73c0.497,0,0.906,0.068,1.228,0.203s0.577,0.307,0.763,0.515
			c0.187,0.208,0.316,0.442,0.39,0.702c0.072,0.26,0.109,0.51,0.109,0.751c0,0.241-0.037,0.492-0.109,0.752
			c-0.073,0.259-0.203,0.493-0.39,0.702c-0.186,0.208-0.441,0.38-0.763,0.515s-0.73,0.203-1.228,0.203h-1.678v3.42h-1.053V81.476z
			 M265.967,84.897h1.382c0.204,0,0.407-0.017,0.608-0.05c0.202-0.032,0.38-0.093,0.538-0.18c0.157-0.088,0.283-0.214,0.378-0.379
			c0.096-0.164,0.143-0.378,0.143-0.642c0-0.263-0.047-0.477-0.143-0.641c-0.095-0.165-0.221-0.291-0.378-0.378
			c-0.157-0.088-0.336-0.148-0.538-0.181c-0.201-0.033-0.404-0.049-0.608-0.049h-1.382V84.897z"/>
		<path fill="#FFFFFF" d="M271.417,81.476h5.012v0.987h-3.959v2.314h3.684v0.986h-3.684v2.489h4.156v0.987h-5.208V81.476z"/>
		<path fill="#FFFFFF" d="M279.027,81.476v4.759c0,0.241,0.033,0.492,0.098,0.751c0.066,0.259,0.176,0.499,0.33,0.717
			c0.153,0.22,0.354,0.399,0.603,0.538c0.248,0.139,0.556,0.208,0.921,0.208c0.365,0,0.672-0.069,0.921-0.208
			c0.249-0.139,0.45-0.318,0.604-0.538c0.153-0.219,0.263-0.458,0.329-0.717c0.066-0.26,0.098-0.51,0.098-0.751v-4.759h1.053v4.924
			c0,0.453-0.077,0.864-0.23,1.233s-0.365,0.689-0.636,0.959c-0.27,0.271-0.588,0.479-0.954,0.625
			c-0.366,0.146-0.76,0.22-1.184,0.22s-0.819-0.073-1.185-0.22c-0.365-0.146-0.684-0.354-0.954-0.625
			c-0.27-0.271-0.482-0.59-0.636-0.959c-0.153-0.369-0.23-0.78-0.23-1.233v-4.924H279.027z"/>
		<path fill="#FFFFFF" d="M285.836,81.476h2.73c0.498,0,0.907,0.068,1.229,0.203c0.321,0.135,0.576,0.307,0.762,0.515
			c0.187,0.208,0.316,0.442,0.39,0.702c0.073,0.26,0.11,0.51,0.11,0.751c0,0.249-0.044,0.488-0.132,0.718
			c-0.088,0.23-0.214,0.439-0.378,0.625c-0.165,0.187-0.366,0.344-0.604,0.472c-0.237,0.127-0.503,0.207-0.794,0.236l2.204,3.541
			h-1.315l-1.974-3.42h-1.173v3.42h-1.053V81.476z M286.889,84.897h1.381c0.205,0,0.408-0.017,0.609-0.05
			c0.201-0.032,0.38-0.093,0.538-0.18c0.157-0.088,0.283-0.214,0.378-0.379c0.095-0.164,0.143-0.378,0.143-0.642
			c0-0.263-0.048-0.477-0.143-0.641c-0.096-0.165-0.221-0.291-0.378-0.378c-0.157-0.088-0.336-0.148-0.538-0.181
			c-0.201-0.033-0.404-0.049-0.609-0.049h-1.381V84.897z"/>
		<path fill="#FFFFFF" d="M237.075,94.645h1.509l2.362,8.541h0.03l2.513-8.541h1.661l2.511,8.541h0.03l2.362-8.541h1.509
			l-3.109,10.684h-1.54l-2.58-8.723h-0.03l-2.566,8.723h-1.539L237.075,94.645z"/>
		<path fill="#FFFFFF" d="M252.95,94.645h6.897v1.357h-5.448v3.185h5.071v1.357h-5.071v3.426h5.719v1.358h-7.168V94.645z"/>
		<path fill="#FFFFFF" d="M262.171,94.645h3.712c0.462,0,0.892,0.054,1.29,0.166c0.397,0.11,0.74,0.274,1.027,0.49
			c0.286,0.217,0.513,0.493,0.679,0.831c0.166,0.336,0.249,0.732,0.249,1.184c0,0.614-0.171,1.115-0.513,1.501
			c-0.342,0.388-0.785,0.672-1.327,0.853v0.03c0.321,0.021,0.623,0.103,0.905,0.25c0.281,0.146,0.525,0.337,0.731,0.573
			c0.206,0.236,0.37,0.511,0.49,0.823c0.121,0.311,0.182,0.648,0.182,1.011c0,0.483-0.098,0.907-0.294,1.275
			c-0.196,0.367-0.465,0.677-0.808,0.928c-0.341,0.251-0.739,0.443-1.192,0.574c-0.453,0.131-0.941,0.196-1.464,0.196h-3.667V94.645
			z M263.62,99.081h1.977c0.272,0,0.528-0.028,0.771-0.083c0.241-0.055,0.453-0.148,0.633-0.279c0.181-0.13,0.325-0.296,0.43-0.498
			c0.105-0.202,0.159-0.448,0.159-0.74c0-0.422-0.136-0.79-0.407-1.102c-0.272-0.312-0.7-0.467-1.283-0.467h-2.278V99.081z
			 M263.62,104.061h2.128c0.221,0,0.465-0.022,0.732-0.068c0.267-0.045,0.515-0.136,0.747-0.272c0.231-0.136,0.428-0.319,0.589-0.55
			c0.161-0.232,0.241-0.539,0.241-0.921c0-0.633-0.206-1.109-0.619-1.426c-0.413-0.316-0.971-0.475-1.675-0.475h-2.143V104.061z"/>
	</g>
	<g>
		<path fill="#FFFFFF" d="M230.267,185.3c-0.214-0.279-0.485-0.493-0.813-0.643c-0.329-0.15-0.668-0.225-1.018-0.225
			c-0.429,0-0.816,0.081-1.163,0.242c-0.346,0.16-0.642,0.38-0.889,0.658s-0.438,0.605-0.573,0.98
			c-0.136,0.375-0.203,0.777-0.203,1.206c0,0.4,0.064,0.778,0.192,1.135c0.128,0.357,0.314,0.672,0.557,0.943
			c0.243,0.272,0.54,0.486,0.89,0.643c0.35,0.157,0.746,0.236,1.189,0.236c0.435,0,0.817-0.09,1.146-0.269
			c0.328-0.178,0.606-0.429,0.835-0.75l0.868,0.653c-0.058,0.078-0.157,0.191-0.3,0.337c-0.143,0.146-0.333,0.293-0.568,0.44
			c-0.235,0.146-0.519,0.274-0.852,0.385c-0.332,0.111-0.716,0.166-1.151,0.166c-0.601,0-1.141-0.114-1.624-0.342
			c-0.481-0.229-0.892-0.529-1.231-0.9c-0.339-0.372-0.598-0.791-0.776-1.259c-0.179-0.467-0.268-0.941-0.268-1.419
			c0-0.586,0.096-1.126,0.289-1.623c0.193-0.496,0.462-0.924,0.809-1.286c0.346-0.36,0.762-0.641,1.247-0.84
			c0.486-0.201,1.021-0.3,1.608-0.3c0.499,0,0.991,0.096,1.472,0.289c0.482,0.193,0.877,0.489,1.183,0.889L230.267,185.3z"/>
		<path fill="#FFFFFF" d="M232.526,183.661h1.029v3.15h3.93v-3.15h1.028v7.583h-1.028v-3.47h-3.93v3.47h-1.029V183.661z"/>
		<path fill="#FFFFFF" d="M242.841,183.661h0.932l3.245,7.583h-1.2l-0.76-1.875h-3.61l-0.75,1.875H239.5L242.841,183.661z
			 M244.684,188.471l-1.415-3.481h-0.021l-1.435,3.481H244.684z"/>
		<path fill="#FFFFFF" d="M248.004,183.661h2.667c0.485,0,0.885,0.066,1.2,0.199c0.314,0.132,0.562,0.299,0.744,0.503
			c0.182,0.204,0.309,0.432,0.38,0.686c0.071,0.253,0.107,0.498,0.107,0.733c0,0.243-0.043,0.476-0.129,0.702
			c-0.085,0.225-0.209,0.429-0.37,0.61c-0.161,0.182-0.356,0.335-0.589,0.461c-0.232,0.125-0.491,0.201-0.776,0.229l2.153,3.46
			h-1.286l-1.928-3.342h-1.146v3.342h-1.029V183.661z M249.033,187.003h1.35c0.199,0,0.397-0.016,0.594-0.048
			c0.197-0.032,0.372-0.091,0.525-0.177c0.154-0.085,0.277-0.208,0.37-0.37c0.093-0.16,0.139-0.369,0.139-0.626
			c0-0.258-0.046-0.466-0.139-0.626c-0.093-0.161-0.216-0.284-0.37-0.37c-0.153-0.085-0.328-0.144-0.525-0.177
			c-0.196-0.032-0.395-0.048-0.594-0.048h-1.35V187.003z"/>
		<path fill="#FFFFFF" d="M261.008,187.003v3.738c-0.186,0.115-0.397,0.214-0.632,0.301c-0.236,0.085-0.48,0.159-0.734,0.219
			s-0.511,0.105-0.771,0.134c-0.26,0.028-0.505,0.042-0.734,0.042c-0.642,0-1.216-0.106-1.719-0.321
			c-0.503-0.214-0.928-0.504-1.275-0.868c-0.346-0.364-0.61-0.787-0.793-1.269c-0.182-0.482-0.272-0.991-0.272-1.526
			c0-0.564,0.098-1.089,0.295-1.575c0.196-0.485,0.467-0.906,0.813-1.264c0.346-0.357,0.762-0.637,1.249-0.84
			c0.485-0.204,1.017-0.305,1.596-0.305c0.699,0,1.271,0.087,1.713,0.262c0.442,0.175,0.814,0.417,1.114,0.723l-0.728,0.782
			c-0.315-0.3-0.646-0.509-0.997-0.627c-0.35-0.117-0.718-0.177-1.103-0.177c-0.437,0-0.829,0.081-1.179,0.242
			c-0.35,0.16-0.649,0.376-0.9,0.647c-0.25,0.272-0.443,0.592-0.578,0.959c-0.136,0.367-0.203,0.758-0.203,1.173
			c0,0.428,0.075,0.827,0.225,1.194c0.149,0.368,0.357,0.687,0.621,0.958s0.575,0.484,0.932,0.637
			c0.357,0.154,0.746,0.231,1.167,0.231c0.364,0,0.708-0.034,1.034-0.103c0.324-0.067,0.602-0.166,0.83-0.295v-2.11h-1.682v-0.964
			H261.008z"/>
		<path fill="#FFFFFF" d="M262.882,183.661h4.895v0.964h-3.867v2.261h3.599v0.964h-3.599v2.431h4.06v0.964h-5.088V183.661z"/>
		<path fill="#FFFFFF" d="M235.361,196.607h2.668c0.485,0,0.885,0.065,1.199,0.198c0.314,0.132,0.562,0.3,0.744,0.503
			c0.183,0.204,0.31,0.432,0.38,0.686c0.071,0.254,0.107,0.498,0.107,0.734c0,0.236-0.036,0.48-0.107,0.734
			c-0.071,0.253-0.198,0.482-0.38,0.686c-0.182,0.204-0.43,0.371-0.744,0.503c-0.314,0.132-0.714,0.198-1.199,0.198h-1.639v3.341
			h-1.029V196.607z M236.39,199.949h1.35c0.2,0,0.397-0.017,0.594-0.048c0.197-0.032,0.372-0.091,0.524-0.177
			c0.154-0.086,0.277-0.209,0.37-0.37c0.092-0.161,0.139-0.37,0.139-0.626s-0.047-0.466-0.139-0.626
			c-0.093-0.161-0.216-0.285-0.37-0.37c-0.153-0.085-0.328-0.144-0.524-0.177c-0.197-0.032-0.395-0.047-0.594-0.047h-1.35V199.949z"
			/>
		<path fill="#FFFFFF" d="M241.712,196.607h2.667c0.486,0,0.885,0.065,1.199,0.198c0.314,0.132,0.563,0.3,0.745,0.503
			s0.309,0.432,0.38,0.686s0.107,0.498,0.107,0.734c0,0.243-0.043,0.477-0.129,0.702c-0.085,0.225-0.208,0.428-0.37,0.611
			c-0.161,0.182-0.357,0.335-0.589,0.46c-0.231,0.125-0.491,0.202-0.777,0.23l2.153,3.46h-1.285l-1.927-3.341h-1.146v3.341h-1.029
			V196.607z M242.741,199.949h1.35c0.2,0,0.398-0.017,0.594-0.048c0.196-0.032,0.371-0.091,0.525-0.177
			c0.153-0.086,0.276-0.209,0.369-0.37s0.14-0.37,0.14-0.626s-0.047-0.466-0.14-0.626c-0.093-0.161-0.216-0.285-0.369-0.37
			c-0.154-0.085-0.329-0.144-0.525-0.177c-0.196-0.032-0.395-0.047-0.594-0.047h-1.35V199.949z"/>
		<path fill="#FFFFFF" d="M251.739,204.383c-0.579,0-1.11-0.102-1.596-0.305c-0.486-0.203-0.902-0.483-1.248-0.84
			c-0.347-0.357-0.618-0.779-0.814-1.265c-0.196-0.485-0.294-1.01-0.294-1.574c0-0.564,0.098-1.089,0.294-1.575
			s0.468-0.907,0.814-1.264c0.346-0.357,0.762-0.637,1.248-0.84c0.485-0.204,1.017-0.305,1.596-0.305s1.11,0.101,1.596,0.305
			c0.485,0.203,0.902,0.483,1.248,0.84c0.347,0.357,0.618,0.779,0.814,1.264s0.294,1.011,0.294,1.575
			c0,0.564-0.098,1.089-0.294,1.574c-0.196,0.486-0.467,0.907-0.814,1.265c-0.346,0.357-0.763,0.637-1.248,0.84
			C252.849,204.282,252.317,204.383,251.739,204.383z M251.739,203.42c0.436,0,0.828-0.082,1.178-0.242
			c0.35-0.161,0.649-0.377,0.9-0.648c0.25-0.271,0.442-0.591,0.578-0.959c0.136-0.368,0.204-0.759,0.204-1.173
			c0-0.414-0.067-0.805-0.204-1.173c-0.135-0.368-0.328-0.688-0.578-0.958c-0.25-0.271-0.55-0.487-0.9-0.648
			c-0.351-0.161-0.743-0.241-1.178-0.241c-0.436,0-0.829,0.08-1.178,0.241c-0.35,0.161-0.649,0.376-0.9,0.648
			c-0.25,0.271-0.443,0.591-0.578,0.958c-0.136,0.368-0.204,0.759-0.204,1.173c0,0.414,0.067,0.805,0.204,1.173
			c0.135,0.368,0.328,0.688,0.578,0.959c0.25,0.271,0.55,0.487,0.9,0.648C250.91,203.339,251.303,203.42,251.739,203.42z"/>
		<path fill="#FFFFFF" d="M259.537,196.607h1.028v5.42c0,0.478-0.074,0.87-0.225,1.172c-0.15,0.304-0.338,0.543-0.562,0.718
			c-0.225,0.175-0.466,0.296-0.723,0.364c-0.257,0.067-0.492,0.102-0.707,0.102c-0.536,0-0.987-0.137-1.355-0.413
			c-0.368-0.274-0.602-0.69-0.701-1.247l1.007-0.226c0.057,0.286,0.175,0.511,0.354,0.675c0.179,0.165,0.41,0.248,0.696,0.248
			c0.257,0,0.462-0.051,0.616-0.151c0.153-0.1,0.273-0.23,0.359-0.391c0.086-0.161,0.143-0.344,0.171-0.552
			c0.029-0.207,0.043-0.418,0.043-0.632V196.607z"/>
		<path fill="#FFFFFF" d="M262.332,196.607h4.895v0.964h-3.866v2.26h3.599v0.964h-3.599v2.432h4.06v0.964h-5.088V196.607z"/>
		<path fill="#FFFFFF" d="M270.462,197.571h-2.442v-0.964h5.913v0.964h-2.442v6.619h-1.028V197.571z"/>
		<path fill="#FFFFFF" d="M272.779,183.661h4.896v0.964h-3.867v2.26h3.598v0.964h-3.598v2.432h4.06v0.964h-5.088V183.661z"/>
		<path fill="#FFFFFF" d="M281.36,189.103h-2.636v-0.899h2.636V189.103z"/>
		<path fill="#FFFFFF" d="M223.206,210.104h1.349l4.178,6.234h0.021v-6.234h1.028v7.584h-1.307l-4.22-6.234h-0.021v6.234h-1.028
			V210.104z"/>
		<path fill="#FFFFFF" d="M232.621,210.104v4.649c0,0.236,0.032,0.48,0.097,0.733c0.063,0.253,0.171,0.487,0.321,0.701
			c0.15,0.215,0.346,0.39,0.589,0.526c0.243,0.135,0.542,0.204,0.9,0.204c0.356,0,0.656-0.068,0.899-0.204
			c0.243-0.136,0.439-0.311,0.589-0.526c0.15-0.214,0.258-0.448,0.322-0.701c0.064-0.253,0.096-0.498,0.096-0.733v-4.649h1.029v4.81
			c0,0.443-0.075,0.844-0.226,1.206c-0.149,0.36-0.357,0.672-0.621,0.937c-0.265,0.264-0.575,0.468-0.932,0.611
			c-0.357,0.143-0.743,0.213-1.157,0.213c-0.415,0-0.8-0.071-1.158-0.213c-0.356-0.143-0.667-0.347-0.932-0.611
			c-0.265-0.264-0.471-0.577-0.621-0.937c-0.15-0.361-0.225-0.763-0.225-1.206v-4.81H232.621z"/>
		<path fill="#FFFFFF" d="M239.197,210.104h1.532l2.409,5.741h0.043l2.389-5.741h1.531v7.584h-1.028v-6.234h-0.021l-2.56,6.234
			h-0.686l-2.559-6.234h-0.021v6.234h-1.029V210.104z"/>
		<path fill="#FFFFFF" d="M248.977,210.104h4.896v0.964h-3.868v2.26h3.6v0.964h-3.6v2.432h4.06v0.964h-5.088V210.104z"/>
		<path fill="#FFFFFF" d="M255.521,210.104h2.667c0.486,0,0.886,0.066,1.2,0.198c0.314,0.132,0.562,0.3,0.744,0.503
			c0.182,0.204,0.308,0.432,0.38,0.686c0.071,0.254,0.107,0.498,0.107,0.733c0,0.243-0.043,0.477-0.128,0.702
			c-0.086,0.225-0.21,0.428-0.37,0.61c-0.161,0.182-0.357,0.336-0.589,0.461c-0.232,0.125-0.491,0.201-0.776,0.229l2.153,3.46
			h-1.286l-1.928-3.342h-1.146v3.342h-1.029V210.104z M256.55,213.446h1.35c0.2,0,0.398-0.017,0.594-0.049
			c0.197-0.032,0.372-0.09,0.525-0.176c0.154-0.086,0.277-0.209,0.37-0.369c0.093-0.161,0.139-0.37,0.139-0.627
			c0-0.257-0.046-0.466-0.139-0.626c-0.093-0.161-0.216-0.284-0.37-0.37c-0.153-0.085-0.328-0.144-0.525-0.177
			c-0.196-0.032-0.394-0.048-0.594-0.048h-1.35V213.446z"/>
		<path fill="#FFFFFF" d="M262.065,210.104h1.029v7.584h-1.029V210.104z"/>
		<path fill="#FFFFFF" d="M272.874,217.688h-4.37c-0.536,0-1.043-0.097-1.521-0.29c-0.478-0.192-0.896-0.46-1.253-0.804
			c-0.357-0.342-0.64-0.751-0.846-1.226c-0.207-0.475-0.311-0.994-0.311-1.559c0-0.556,0.1-1.072,0.3-1.547
			c0.2-0.475,0.477-0.887,0.83-1.237c0.354-0.35,0.768-0.623,1.243-0.819c0.475-0.196,0.991-0.294,1.548-0.294
			c0.535,0,1.037,0.096,1.505,0.289c0.467,0.193,0.876,0.459,1.227,0.798c0.349,0.34,0.626,0.739,0.829,1.2
			c0.204,0.46,0.306,0.962,0.306,1.505c0,0.321-0.038,0.637-0.113,0.948c-0.075,0.311-0.186,0.601-0.332,0.873
			c-0.146,0.271-0.329,0.514-0.546,0.728c-0.218,0.214-0.466,0.386-0.745,0.514v0.021h2.249V217.688z M268.46,216.723
			c0.415,0,0.795-0.077,1.141-0.23c0.347-0.153,0.643-0.364,0.889-0.632c0.246-0.268,0.437-0.584,0.573-0.948
			s0.204-0.754,0.204-1.167c0-0.4-0.07-0.775-0.209-1.125c-0.139-0.35-0.333-0.653-0.583-0.91c-0.25-0.257-0.546-0.461-0.889-0.611
			c-0.343-0.15-0.718-0.225-1.125-0.225c-0.4,0-0.769,0.074-1.108,0.225c-0.339,0.15-0.634,0.354-0.883,0.611
			c-0.25,0.257-0.447,0.559-0.589,0.905c-0.143,0.347-0.214,0.716-0.214,1.109c0,0.414,0.068,0.803,0.203,1.167
			c0.136,0.364,0.327,0.682,0.574,0.953c0.246,0.272,0.541,0.486,0.883,0.643C267.668,216.645,268.047,216.723,268.46,216.723z"/>
		<path fill="#FFFFFF" d="M274.845,210.104v4.649c0,0.236,0.032,0.48,0.096,0.733s0.171,0.487,0.322,0.701
			c0.149,0.215,0.346,0.39,0.588,0.526c0.243,0.135,0.543,0.204,0.9,0.204c0.357,0,0.656-0.068,0.899-0.204
			c0.243-0.136,0.439-0.311,0.589-0.526c0.15-0.214,0.257-0.448,0.321-0.701c0.064-0.253,0.097-0.498,0.097-0.733v-4.649h1.029v4.81
			c0,0.443-0.075,0.844-0.226,1.206c-0.15,0.36-0.357,0.672-0.621,0.937c-0.264,0.264-0.575,0.468-0.932,0.611
			c-0.357,0.143-0.742,0.213-1.157,0.213s-0.8-0.071-1.156-0.213c-0.358-0.143-0.669-0.347-0.933-0.611
			c-0.264-0.264-0.472-0.577-0.621-0.937c-0.15-0.361-0.225-0.763-0.225-1.206v-4.81H274.845z"/>
		<path fill="#FFFFFF" d="M281.496,210.104h4.895v0.964h-3.867v2.26h3.599v0.964h-3.599v2.432h4.06v0.964h-5.088V210.104z"/>
	</g>
	<g>
		<path fill="#FFFFFF" d="M348.588,85.358h2.925c0.592,0,1.112,0.068,1.559,0.202c0.445,0.135,0.833,0.314,1.161,0.539
			c0.327,0.225,0.599,0.484,0.817,0.777c0.217,0.292,0.388,0.592,0.515,0.9c0.126,0.308,0.216,0.616,0.272,0.924
			c0.054,0.308,0.083,0.592,0.083,0.853c0,0.537-0.099,1.057-0.295,1.558c-0.197,0.501-0.49,0.947-0.877,1.338
			c-0.387,0.391-0.867,0.704-1.439,0.942c-0.573,0.236-1.234,0.355-1.984,0.355h-2.736V85.358z M349.726,92.679h1.433
			c0.482,0,0.937-0.065,1.367-0.195c0.432-0.13,0.808-0.326,1.132-0.586s0.581-0.586,0.77-0.977c0.19-0.391,0.284-0.848,0.284-1.369
			c0-0.269-0.044-0.582-0.13-0.941c-0.087-0.359-0.25-0.701-0.491-1.025c-0.241-0.323-0.575-0.598-1.001-0.823
			c-0.426-0.225-0.979-0.337-1.658-0.337h-1.706V92.679z"/>
		<path fill="#FFFFFF" d="M357.554,85.358h5.414v1.066h-4.276v2.5h3.98v1.066h-3.98v2.688h4.489v1.067h-5.627V85.358z"/>
		<path fill="#FFFFFF" d="M370.631,87.171c-0.237-0.308-0.537-0.544-0.9-0.711c-0.364-0.166-0.739-0.249-1.125-0.249
			c-0.474,0-0.902,0.089-1.285,0.267c-0.383,0.177-0.711,0.42-0.983,0.729c-0.272,0.308-0.484,0.669-0.635,1.083
			c-0.149,0.415-0.224,0.859-0.224,1.333c0,0.441,0.072,0.86,0.213,1.255c0.143,0.395,0.347,0.743,0.616,1.042
			c0.269,0.3,0.597,0.537,0.983,0.711c0.387,0.174,0.826,0.261,1.315,0.261c0.482,0,0.904-0.099,1.267-0.296
			c0.363-0.197,0.671-0.474,0.924-0.829l0.96,0.722c-0.064,0.087-0.174,0.211-0.333,0.373c-0.158,0.162-0.366,0.324-0.627,0.485
			c-0.261,0.163-0.574,0.305-0.942,0.426c-0.367,0.123-0.792,0.184-1.273,0.184c-0.663,0-1.261-0.126-1.794-0.379
			c-0.534-0.252-0.987-0.584-1.362-0.994c-0.376-0.411-0.662-0.875-0.859-1.392c-0.198-0.518-0.296-1.041-0.296-1.569
			c0-0.648,0.106-1.246,0.319-1.795c0.214-0.548,0.512-1.022,0.895-1.421c0.383-0.398,0.843-0.708,1.381-0.929
			c0.537-0.222,1.129-0.332,1.776-0.332c0.553,0,1.095,0.106,1.628,0.319c0.533,0.214,0.97,0.541,1.309,0.983L370.631,87.171z"/>
		<path fill="#FFFFFF" d="M376.981,93.958c-0.64,0-1.228-0.112-1.765-0.337c-0.537-0.225-0.997-0.535-1.381-0.93
			c-0.382-0.395-0.682-0.86-0.899-1.397c-0.217-0.537-0.325-1.118-0.325-1.742c0-0.623,0.108-1.204,0.325-1.741
			c0.218-0.537,0.517-1.002,0.899-1.397c0.384-0.395,0.844-0.705,1.381-0.93c0.537-0.225,1.125-0.337,1.765-0.337
			c0.64,0,1.228,0.112,1.765,0.337c0.537,0.225,0.997,0.535,1.379,0.93c0.383,0.395,0.683,0.86,0.9,1.397
			c0.218,0.538,0.326,1.118,0.326,1.741c0,0.624-0.108,1.205-0.326,1.742c-0.217,0.537-0.517,1.003-0.9,1.397
			c-0.383,0.395-0.843,0.705-1.379,0.93C378.209,93.846,377.621,93.958,376.981,93.958z M376.981,92.893
			c0.481,0,0.916-0.089,1.302-0.267c0.387-0.178,0.719-0.417,0.996-0.717c0.276-0.3,0.49-0.653,0.639-1.06
			c0.15-0.407,0.226-0.839,0.226-1.297c0-0.458-0.076-0.89-0.226-1.297c-0.149-0.407-0.363-0.76-0.639-1.061
			c-0.277-0.299-0.608-0.539-0.996-0.716c-0.387-0.177-0.821-0.267-1.302-0.267c-0.482,0-0.917,0.089-1.304,0.267
			c-0.386,0.177-0.718,0.417-0.995,0.716c-0.276,0.301-0.489,0.654-0.64,1.061c-0.149,0.407-0.225,0.839-0.225,1.297
			c0,0.458,0.075,0.891,0.225,1.297c0.151,0.407,0.364,0.76,0.64,1.06s0.608,0.539,0.995,0.717
			C376.064,92.803,376.499,92.893,376.981,92.893z"/>
		<path fill="#FFFFFF" d="M382.985,85.358h1.138v7.32h3.849v1.067h-4.987V85.358z"/>
		<path fill="#FFFFFF" d="M389.133,85.358h1.137v7.32h3.849v1.067h-4.986V85.358z"/>
		<path fill="#FFFFFF" d="M397.909,85.358h1.03l3.589,8.387h-1.327l-0.84-2.073h-3.991l-0.829,2.073h-1.328L397.909,85.358z
			 M399.947,90.677l-1.564-3.849h-0.024l-1.587,3.849H399.947z"/>
		<path fill="#FFFFFF" d="M410.762,89.055v4.134c-0.206,0.126-0.438,0.237-0.699,0.332c-0.261,0.095-0.531,0.176-0.812,0.243
			c-0.28,0.067-0.565,0.116-0.853,0.148c-0.289,0.031-0.559,0.047-0.811,0.047c-0.712,0-1.345-0.118-1.902-0.355
			c-0.557-0.237-1.026-0.557-1.409-0.959c-0.383-0.402-0.675-0.871-0.876-1.404c-0.202-0.533-0.302-1.095-0.302-1.688
			c0-0.623,0.108-1.204,0.325-1.741c0.218-0.537,0.517-1.002,0.9-1.397c0.384-0.395,0.844-0.705,1.381-0.93
			c0.537-0.225,1.125-0.337,1.765-0.337c0.774,0,1.406,0.097,1.895,0.29c0.491,0.194,0.901,0.46,1.233,0.799L409.79,87.1
			c-0.347-0.332-0.714-0.562-1.101-0.693c-0.387-0.13-0.793-0.195-1.22-0.195c-0.482,0-0.917,0.089-1.303,0.267
			c-0.387,0.177-0.719,0.417-0.995,0.716c-0.277,0.301-0.489,0.654-0.64,1.061c-0.149,0.407-0.225,0.839-0.225,1.297
			c0,0.474,0.083,0.915,0.249,1.321c0.166,0.407,0.394,0.76,0.687,1.061c0.292,0.3,0.635,0.535,1.03,0.705
			c0.395,0.17,0.825,0.255,1.291,0.255c0.403,0,0.783-0.038,1.143-0.112c0.36-0.075,0.665-0.184,0.917-0.326v-2.333h-1.859v-1.066
			H410.762z"/>
		<path fill="#FFFFFF" d="M412.834,85.358h5.414v1.066h-4.276v2.5h3.981v1.066h-3.981v2.688h4.489v1.067h-5.627V85.358z"/>
	</g>
	<g>
		<path fill="#FF0A2B" d="M451.304,56.348h3.016c0.396,0,0.771,0.039,1.128,0.116c0.355,0.078,0.668,0.206,0.935,0.385
			c0.269,0.18,0.481,0.422,0.639,0.727s0.236,0.684,0.236,1.139c0,0.55-0.143,1.018-0.429,1.403
			c-0.286,0.386-0.704,0.629-1.255,0.732l1.981,3.291h-2.059l-1.628-3.115h-0.847v3.115h-1.718V56.348z M453.021,59.573h1.012
			c0.154,0,0.316-0.005,0.489-0.017c0.172-0.011,0.328-0.044,0.468-0.099s0.255-0.141,0.347-0.259
			c0.092-0.117,0.138-0.282,0.138-0.495c0-0.199-0.041-0.356-0.12-0.473c-0.082-0.118-0.184-0.208-0.31-0.27
			c-0.125-0.063-0.268-0.105-0.429-0.127c-0.162-0.021-0.319-0.033-0.474-0.033h-1.121V59.573z"/>
		<path fill="#FF0A2B" d="M465.006,61.136c0,0.462-0.07,0.888-0.21,1.277c-0.14,0.388-0.346,0.726-0.621,1.013
			c-0.274,0.286-0.618,0.51-1.029,0.671s-0.884,0.242-1.419,0.242c-0.543,0-1.021-0.081-1.432-0.242
			c-0.41-0.161-0.754-0.385-1.029-0.671c-0.274-0.287-0.481-0.625-0.621-1.013c-0.14-0.389-0.209-0.815-0.209-1.277v-4.788h1.717
			v4.722c0,0.242,0.038,0.466,0.116,0.67c0.076,0.206,0.184,0.384,0.324,0.534c0.139,0.151,0.306,0.268,0.501,0.353
			c0.193,0.084,0.404,0.126,0.633,0.126c0.227,0,0.436-0.042,0.627-0.126s0.356-0.202,0.495-0.353
			c0.14-0.15,0.248-0.328,0.325-0.534c0.076-0.205,0.115-0.428,0.115-0.67v-4.722h1.717V61.136z"/>
		<path fill="#FF0A2B" d="M466.59,56.348h2.906c0.337,0,0.677,0.025,1.017,0.072c0.341,0.048,0.647,0.143,0.92,0.286
			c0.271,0.143,0.49,0.343,0.66,0.599c0.169,0.257,0.253,0.599,0.253,1.024c0,0.44-0.123,0.805-0.369,1.095
			c-0.245,0.291-0.57,0.497-0.974,0.622v0.022c0.257,0.037,0.489,0.108,0.699,0.214c0.209,0.107,0.389,0.242,0.54,0.408
			c0.149,0.165,0.265,0.358,0.346,0.578c0.081,0.22,0.121,0.455,0.121,0.704c0,0.411-0.087,0.754-0.264,1.029
			c-0.177,0.275-0.404,0.497-0.683,0.666c-0.278,0.169-0.593,0.291-0.941,0.363c-0.349,0.074-0.695,0.11-1.039,0.11h-3.192V56.348z
			 M468.308,59.462h1.243c0.132,0,0.262-0.014,0.39-0.043c0.129-0.029,0.245-0.077,0.349-0.144c0.102-0.066,0.184-0.154,0.246-0.264
			c0.062-0.11,0.094-0.242,0.094-0.396c0-0.161-0.035-0.295-0.104-0.402c-0.069-0.106-0.159-0.188-0.27-0.247
			c-0.11-0.059-0.234-0.101-0.374-0.127c-0.14-0.025-0.275-0.039-0.408-0.039h-1.165V59.462z M468.308,62.687h1.54
			c0.132,0,0.266-0.015,0.4-0.043c0.137-0.03,0.26-0.081,0.37-0.154c0.11-0.074,0.199-0.169,0.27-0.287
			c0.069-0.117,0.104-0.26,0.104-0.429c0-0.183-0.046-0.332-0.139-0.446c-0.091-0.114-0.206-0.2-0.346-0.258
			c-0.139-0.059-0.289-0.1-0.451-0.121c-0.161-0.022-0.312-0.033-0.451-0.033h-1.298V62.687z"/>
		<path fill="#FF0A2B" d="M475.637,60.816l-2.928-4.469h2.136l1.65,2.917l1.75-2.917h2.035l-2.927,4.469v3.324h-1.717V60.816z"/>
		<path fill="#FF0A2B" d="M486.576,55.765l1.254,0.385l-3.301,8.573l-1.244-0.385L486.576,55.765z"/>
		<path fill="#FF0A2B" d="M491.848,56.348h3.016c0.396,0,0.772,0.039,1.128,0.116c0.355,0.078,0.668,0.206,0.937,0.385
			c0.268,0.18,0.479,0.422,0.637,0.727c0.158,0.304,0.238,0.684,0.238,1.139c0,0.55-0.145,1.018-0.43,1.403
			c-0.286,0.386-0.705,0.629-1.255,0.732l1.981,3.291h-2.06l-1.628-3.115h-0.847v3.115h-1.718V56.348z M493.565,59.573h1.011
			c0.155,0,0.317-0.005,0.491-0.017c0.171-0.011,0.328-0.044,0.466-0.099c0.141-0.055,0.257-0.141,0.348-0.259
			c0.093-0.117,0.139-0.282,0.139-0.495c0-0.199-0.041-0.356-0.121-0.473c-0.082-0.118-0.184-0.208-0.309-0.27
			c-0.125-0.063-0.268-0.105-0.429-0.127c-0.163-0.021-0.32-0.033-0.474-0.033h-1.122V59.573z"/>
		<path fill="#FF0A2B" d="M505.55,61.136c0,0.462-0.069,0.888-0.21,1.277c-0.139,0.388-0.346,0.726-0.621,1.013
			c-0.274,0.286-0.618,0.51-1.029,0.671c-0.41,0.161-0.883,0.242-1.419,0.242c-0.543,0-1.02-0.081-1.432-0.242
			c-0.41-0.161-0.753-0.385-1.028-0.671c-0.275-0.287-0.482-0.625-0.622-1.013c-0.14-0.389-0.208-0.815-0.208-1.277v-4.788h1.717
			v4.722c0,0.242,0.039,0.466,0.115,0.67c0.076,0.206,0.184,0.384,0.324,0.534c0.139,0.151,0.307,0.268,0.5,0.353
			c0.195,0.084,0.406,0.126,0.634,0.126s0.436-0.042,0.627-0.126s0.356-0.202,0.495-0.353c0.141-0.15,0.248-0.328,0.325-0.534
			c0.077-0.205,0.116-0.428,0.116-0.67v-4.722h1.716V61.136z"/>
		<path fill="#FF0A2B" d="M507.135,56.348h2.905c0.337,0,0.677,0.025,1.019,0.072c0.34,0.048,0.646,0.143,0.918,0.286
			c0.271,0.143,0.492,0.343,0.661,0.599c0.168,0.257,0.253,0.599,0.253,1.024c0,0.44-0.123,0.805-0.369,1.095
			c-0.245,0.291-0.57,0.497-0.975,0.622v0.022c0.257,0.037,0.491,0.108,0.7,0.214c0.209,0.107,0.388,0.242,0.539,0.408
			c0.149,0.165,0.265,0.358,0.347,0.578c0.08,0.22,0.12,0.455,0.12,0.704c0,0.411-0.087,0.754-0.264,1.029
			c-0.177,0.275-0.404,0.497-0.683,0.666c-0.278,0.169-0.593,0.291-0.94,0.363c-0.349,0.074-0.696,0.11-1.04,0.11h-3.191V56.348z
			 M508.852,59.462h1.243c0.133,0,0.263-0.014,0.391-0.043c0.129-0.029,0.244-0.077,0.347-0.144
			c0.103-0.066,0.186-0.154,0.248-0.264c0.062-0.11,0.093-0.242,0.093-0.396c0-0.161-0.034-0.295-0.104-0.402
			c-0.071-0.106-0.159-0.188-0.271-0.247c-0.109-0.059-0.234-0.101-0.375-0.127c-0.139-0.025-0.274-0.039-0.406-0.039h-1.166V59.462
			z M508.852,62.687h1.54c0.132,0,0.267-0.015,0.401-0.043c0.136-0.03,0.26-0.081,0.37-0.154c0.109-0.074,0.199-0.169,0.269-0.287
			c0.07-0.117,0.105-0.26,0.105-0.429c0-0.183-0.046-0.332-0.139-0.446c-0.091-0.114-0.206-0.2-0.346-0.258
			c-0.14-0.059-0.29-0.1-0.452-0.121c-0.161-0.022-0.312-0.033-0.451-0.033h-1.298V62.687z"/>
		<path fill="#FF0A2B" d="M516.182,60.816l-2.929-4.469h2.136l1.65,2.917l1.75-2.917h2.036l-2.927,4.469v3.324h-1.717V60.816z"/>
		<path fill="#FF0A2B" d="M524.238,60.244c0-0.623,0.104-1.188,0.312-1.695c0.209-0.506,0.502-0.937,0.875-1.293
			c0.375-0.355,0.818-0.629,1.333-0.819c0.513-0.191,1.074-0.286,1.683-0.286c0.609,0,1.17,0.095,1.684,0.286
			c0.514,0.19,0.958,0.464,1.332,0.819c0.375,0.356,0.666,0.788,0.875,1.293c0.208,0.506,0.313,1.072,0.313,1.695
			c0,0.624-0.105,1.189-0.313,1.695c-0.209,0.506-0.5,0.938-0.875,1.293c-0.374,0.356-0.818,0.629-1.332,0.82
			c-0.514,0.191-1.074,0.287-1.684,0.287c-0.608,0-1.17-0.096-1.683-0.287c-0.515-0.19-0.958-0.464-1.333-0.82
			c-0.373-0.355-0.666-0.787-0.875-1.293C524.343,61.433,524.238,60.868,524.238,60.244z M526.02,60.244
			c0,0.367,0.057,0.703,0.171,1.007c0.114,0.305,0.276,0.569,0.491,0.792c0.211,0.224,0.467,0.398,0.765,0.522
			c0.298,0.125,0.628,0.187,0.995,0.187c0.366,0,0.699-0.062,0.996-0.187c0.297-0.125,0.552-0.298,0.765-0.522
			c0.213-0.224,0.376-0.488,0.49-0.792c0.114-0.304,0.171-0.64,0.171-1.007c0-0.359-0.057-0.693-0.171-1.001
			s-0.277-0.574-0.49-0.798s-0.468-0.398-0.765-0.522c-0.297-0.125-0.63-0.188-0.996-0.188c-0.367,0-0.697,0.062-0.995,0.188
			c-0.298,0.125-0.554,0.299-0.765,0.522c-0.215,0.224-0.377,0.49-0.491,0.798S526.02,59.885,526.02,60.244z"/>
		<path fill="#FF0A2B" d="M533.812,56.348h2.334l3.312,5.416h0.022v-5.416h1.716v7.792h-2.245l-3.401-5.547h-0.021v5.547h-1.717
			V56.348z"/>
		<path fill="#FF0A2B" d="M546.039,56.348h3.016c0.396,0,0.772,0.039,1.128,0.116c0.355,0.078,0.668,0.206,0.936,0.385
			c0.268,0.18,0.48,0.422,0.637,0.727c0.159,0.304,0.239,0.684,0.239,1.139c0,0.55-0.144,1.018-0.431,1.403
			c-0.286,0.386-0.704,0.629-1.255,0.732l1.98,3.291h-2.058l-1.628-3.115h-0.847v3.115h-1.718V56.348z M547.757,59.573h1.012
			c0.153,0,0.316-0.005,0.489-0.017c0.172-0.011,0.329-0.044,0.469-0.099c0.139-0.055,0.254-0.141,0.345-0.259
			c0.093-0.117,0.14-0.282,0.14-0.495c0-0.199-0.041-0.356-0.122-0.473c-0.081-0.118-0.184-0.208-0.308-0.27
			c-0.125-0.063-0.268-0.105-0.43-0.127c-0.162-0.021-0.319-0.033-0.474-0.033h-1.121V59.573z"/>
		<path fill="#FF0A2B" d="M555.735,56.348h1.419l3.391,7.792h-1.938l-0.672-1.65h-3.025l-0.65,1.65h-1.893L555.735,56.348z
			 M556.395,58.615l-0.946,2.421h1.904L556.395,58.615z"/>
		<path fill="#FF0A2B" d="M561.304,56.348h1.716v7.792h-1.716V56.348z"/>
		<path fill="#FF0A2B" d="M564.648,56.348h1.717v6.208h3.182v1.585h-4.898V56.348z"/>
		<path fill="#FF0A2B" d="M574.346,58.252c-0.14-0.176-0.329-0.306-0.566-0.391c-0.239-0.084-0.466-0.126-0.678-0.126
			c-0.124,0-0.254,0.015-0.385,0.044c-0.133,0.03-0.258,0.075-0.375,0.137c-0.116,0.063-0.213,0.146-0.285,0.248
			c-0.073,0.104-0.109,0.227-0.109,0.374c0,0.235,0.087,0.415,0.264,0.539c0.175,0.125,0.397,0.231,0.665,0.32
			c0.268,0.087,0.557,0.176,0.864,0.264c0.309,0.088,0.596,0.213,0.863,0.374c0.268,0.162,0.49,0.378,0.666,0.65
			c0.176,0.271,0.264,0.634,0.264,1.089c0,0.433-0.08,0.811-0.242,1.133c-0.161,0.323-0.38,0.591-0.654,0.804
			c-0.275,0.213-0.594,0.371-0.957,0.473c-0.363,0.103-0.746,0.154-1.15,0.154c-0.506,0-0.976-0.078-1.409-0.232
			c-0.433-0.153-0.836-0.403-1.21-0.748l1.221-1.343c0.177,0.234,0.398,0.417,0.667,0.544c0.268,0.128,0.544,0.192,0.831,0.192
			c0.139,0,0.28-0.016,0.424-0.049c0.143-0.034,0.271-0.083,0.385-0.149c0.113-0.065,0.205-0.15,0.275-0.253
			s0.104-0.224,0.104-0.363c0-0.235-0.091-0.42-0.271-0.555c-0.18-0.136-0.405-0.252-0.677-0.347
			c-0.271-0.095-0.565-0.19-0.88-0.286c-0.316-0.096-0.609-0.224-0.881-0.385s-0.498-0.374-0.677-0.638
			c-0.18-0.265-0.27-0.613-0.27-1.046c0-0.418,0.082-0.785,0.249-1.1c0.164-0.315,0.384-0.58,0.659-0.792s0.592-0.373,0.952-0.479
			c0.358-0.106,0.729-0.159,1.112-0.159c0.438,0,0.864,0.062,1.275,0.187c0.411,0.125,0.782,0.334,1.111,0.627L574.346,58.252z"/>
	</g>
	<g>
		<path fill="#FF0A2B" d="M463.278,88.297h3.194c0.446,0,0.867,0.04,1.264,0.121s0.743,0.222,1.039,0.419
			c0.296,0.198,0.53,0.465,0.705,0.802c0.174,0.336,0.261,0.759,0.261,1.269c0,0.502-0.081,0.923-0.244,1.263
			c-0.161,0.34-0.384,0.612-0.667,0.814c-0.284,0.203-0.62,0.347-1.01,0.432c-0.388,0.085-0.809,0.127-1.263,0.127h-1.384v3.353
			h-1.896V88.297z M465.174,91.941h1.264c0.17,0,0.334-0.016,0.491-0.048c0.158-0.033,0.299-0.087,0.425-0.164
			c0.126-0.078,0.228-0.183,0.305-0.316c0.076-0.134,0.114-0.302,0.114-0.504c0-0.219-0.05-0.395-0.151-0.528
			c-0.102-0.134-0.23-0.237-0.39-0.31c-0.155-0.073-0.333-0.12-0.526-0.14c-0.196-0.02-0.381-0.03-0.559-0.03h-0.973V91.941z"/>
		<path fill="#FF0A2B" d="M470.933,88.297h1.895v3.207h3.681v-3.207h1.895v8.601h-1.895v-3.717h-3.681v3.717h-1.895V88.297z"/>
		<path fill="#FF0A2B" d="M480.152,88.297h3.193c0.446,0,0.867,0.04,1.265,0.121s0.743,0.222,1.039,0.419
			c0.295,0.198,0.53,0.465,0.703,0.802c0.175,0.336,0.262,0.759,0.262,1.269c0,0.502-0.081,0.923-0.243,1.263
			s-0.384,0.612-0.668,0.814c-0.282,0.203-0.619,0.347-1.008,0.432c-0.39,0.085-0.811,0.127-1.264,0.127h-1.384v3.353h-1.896V88.297
			z M482.048,91.941h1.263c0.17,0,0.334-0.016,0.492-0.048c0.156-0.033,0.299-0.087,0.425-0.164
			c0.125-0.078,0.227-0.183,0.304-0.316c0.076-0.134,0.115-0.302,0.115-0.504c0-0.219-0.051-0.395-0.151-0.528
			c-0.102-0.134-0.23-0.237-0.39-0.31c-0.157-0.073-0.333-0.12-0.527-0.14c-0.195-0.02-0.381-0.03-0.559-0.03h-0.972V91.941z"/>
		<path fill="#FF0A2B" d="M495.652,90.399c-0.152-0.194-0.362-0.338-0.625-0.431c-0.265-0.093-0.514-0.14-0.748-0.14
			c-0.137,0-0.28,0.016-0.425,0.048c-0.146,0.033-0.283,0.083-0.413,0.152s-0.235,0.16-0.315,0.273
			c-0.081,0.113-0.121,0.251-0.121,0.413c0,0.259,0.097,0.458,0.291,0.595c0.193,0.138,0.438,0.255,0.735,0.353
			c0.295,0.097,0.613,0.194,0.953,0.292c0.341,0.096,0.658,0.234,0.953,0.412c0.296,0.179,0.541,0.417,0.735,0.717
			c0.194,0.3,0.292,0.7,0.292,1.203c0,0.479-0.09,0.896-0.268,1.252s-0.42,0.651-0.723,0.887c-0.304,0.235-0.656,0.409-1.057,0.522
			c-0.401,0.114-0.825,0.17-1.27,0.17c-0.56,0-1.078-0.085-1.556-0.255c-0.477-0.17-0.924-0.445-1.336-0.826l1.348-1.482
			c0.195,0.259,0.44,0.46,0.735,0.601c0.296,0.142,0.602,0.213,0.918,0.213c0.153,0,0.309-0.018,0.468-0.054
			c0.157-0.037,0.299-0.091,0.425-0.165c0.127-0.072,0.227-0.166,0.304-0.279s0.116-0.248,0.116-0.401
			c0-0.259-0.101-0.463-0.298-0.614c-0.199-0.149-0.448-0.277-0.747-0.382c-0.301-0.106-0.625-0.211-0.973-0.316
			c-0.349-0.106-0.672-0.247-0.971-0.425c-0.301-0.178-0.55-0.413-0.748-0.705c-0.199-0.292-0.298-0.676-0.298-1.154
			c0-0.462,0.091-0.867,0.273-1.215c0.183-0.349,0.425-0.64,0.729-0.875c0.304-0.235,0.654-0.411,1.051-0.528
			c0.397-0.117,0.807-0.176,1.228-0.176c0.485,0,0.955,0.068,1.408,0.206c0.454,0.138,0.863,0.369,1.227,0.692L495.652,90.399z"/>
		<path fill="#FF0A2B" d="M500.487,93.229l-3.231-4.932h2.356l1.822,3.219l1.933-3.219h2.247l-3.23,4.932v3.669h-1.896V93.229z"/>
		<path fill="#FF0A2B" d="M506.246,88.297h2.867l1.98,5.612h0.023l1.993-5.612h2.854v8.601h-1.895v-6.597h-0.023l-2.262,6.597
			h-1.444l-2.176-6.597h-0.024v6.597h-1.895V88.297z"/>
		<path fill="#FF0A2B" d="M517.716,88.297h3.193c0.446,0,0.867,0.04,1.264,0.121c0.397,0.082,0.743,0.222,1.039,0.419
			c0.296,0.198,0.531,0.465,0.706,0.802c0.172,0.336,0.26,0.759,0.26,1.269c0,0.502-0.081,0.923-0.243,1.263
			c-0.161,0.34-0.384,0.612-0.669,0.814c-0.282,0.203-0.618,0.347-1.008,0.432c-0.389,0.085-0.81,0.127-1.264,0.127h-1.384v3.353
			h-1.895V88.297z M519.61,91.941h1.264c0.169,0,0.334-0.016,0.491-0.048c0.159-0.033,0.299-0.087,0.425-0.164
			c0.126-0.078,0.228-0.183,0.305-0.316c0.076-0.134,0.114-0.302,0.114-0.504c0-0.219-0.051-0.395-0.151-0.528
			c-0.101-0.134-0.231-0.237-0.389-0.31c-0.158-0.073-0.333-0.12-0.529-0.14c-0.193-0.02-0.38-0.03-0.558-0.03h-0.972V91.941z"/>
		<path fill="#FF0A2B" d="M525.368,88.297h1.896v3.207h3.681v-3.207h1.895v8.601h-1.895v-3.717h-3.681v3.717h-1.896V88.297z"/>
		<path fill="#FF0A2B" d="M534.127,92.598c0-0.688,0.115-1.312,0.346-1.871c0.229-0.559,0.553-1.034,0.966-1.427
			c0.413-0.393,0.903-0.695,1.471-0.906c0.565-0.21,1.186-0.315,1.858-0.315s1.29,0.105,1.859,0.315
			c0.565,0.211,1.057,0.513,1.469,0.906c0.414,0.393,0.735,0.868,0.967,1.427c0.23,0.559,0.346,1.183,0.346,1.871
			c0,0.688-0.115,1.312-0.346,1.871c-0.231,0.559-0.553,1.035-0.967,1.427c-0.412,0.393-0.903,0.695-1.469,0.905
			c-0.569,0.211-1.187,0.316-1.859,0.316s-1.293-0.105-1.858-0.316c-0.567-0.21-1.058-0.512-1.471-0.905
			c-0.413-0.393-0.736-0.869-0.966-1.427C534.242,93.91,534.127,93.286,534.127,92.598z M536.095,92.598
			c0,0.406,0.063,0.776,0.188,1.111c0.125,0.336,0.305,0.628,0.539,0.875c0.236,0.247,0.519,0.439,0.845,0.577
			c0.329,0.138,0.694,0.207,1.101,0.207c0.404,0,0.771-0.069,1.1-0.207c0.328-0.138,0.608-0.33,0.844-0.577
			c0.234-0.247,0.415-0.539,0.541-0.875c0.125-0.335,0.188-0.706,0.188-1.111c0-0.396-0.062-0.765-0.188-1.105
			c-0.126-0.34-0.307-0.634-0.541-0.881c-0.235-0.248-0.516-0.439-0.844-0.577c-0.329-0.138-0.695-0.207-1.1-0.207
			c-0.406,0-0.771,0.068-1.101,0.207c-0.326,0.138-0.608,0.33-0.845,0.577c-0.234,0.247-0.414,0.541-0.539,0.881
			C536.158,91.833,536.095,92.202,536.095,92.598z"/>
		<path fill="#FF0A2B" d="M544.695,88.297h2.576l3.655,5.978h0.024v-5.978h1.895v8.601h-2.477l-3.755-6.123h-0.022v6.123h-1.896
			V88.297z"/>
		<path fill="#FF0A2B" d="M556.711,93.229l-3.232-4.932h2.357l1.822,3.219l1.931-3.219h2.248l-3.23,4.932v3.669h-1.896V93.229z"/>
	</g>
	<g>
		<path fill="#FF0A2B" d="M462.888,121.062h2.515c0.351,0,0.683,0.032,0.994,0.096c0.312,0.064,0.584,0.174,0.818,0.33
			c0.232,0.156,0.418,0.367,0.554,0.631c0.137,0.264,0.206,0.598,0.206,0.999c0,0.396-0.064,0.727-0.192,0.995
			c-0.128,0.267-0.302,0.481-0.525,0.641c-0.223,0.159-0.487,0.272-0.794,0.339c-0.306,0.067-0.637,0.101-0.994,0.101h-1.089v2.639
			h-1.492V121.062z M464.38,123.931h0.994c0.134,0,0.263-0.013,0.386-0.038c0.125-0.025,0.236-0.069,0.336-0.129
			c0.099-0.061,0.179-0.144,0.238-0.249c0.061-0.105,0.092-0.237,0.092-0.397c0-0.172-0.04-0.311-0.12-0.416
			c-0.08-0.105-0.182-0.187-0.306-0.244c-0.124-0.057-0.262-0.093-0.416-0.11c-0.153-0.016-0.3-0.024-0.439-0.024h-0.765V123.931z"
			/>
		<path fill="#FF0A2B" d="M470.575,124.944l-2.544-3.882h1.854l1.435,2.534l1.521-2.534h1.769l-2.543,3.882v2.888h-1.491V124.944z"
			/>
		<path fill="#FF0A2B" d="M476.416,122.382h-1.932v-1.32h5.354v1.32h-1.931v5.449h-1.492V122.382z"/>
		<path fill="#FF0A2B" d="M480.595,121.062h1.492v2.524h2.896v-2.524h1.491v6.77h-1.491v-2.926h-2.896v2.926h-1.492V121.062z"/>
		<path fill="#FF0A2B" d="M487.487,124.447c0-0.542,0.091-1.033,0.272-1.472c0.182-0.44,0.436-0.814,0.76-1.123
			c0.325-0.31,0.711-0.547,1.157-0.712c0.446-0.167,0.935-0.249,1.463-0.249c0.529,0,1.017,0.083,1.462,0.249
			c0.447,0.166,0.833,0.403,1.157,0.712c0.326,0.309,0.579,0.683,0.761,1.123c0.182,0.439,0.273,0.931,0.273,1.472
			c0,0.542-0.092,1.033-0.273,1.473c-0.182,0.439-0.435,0.814-0.761,1.123c-0.324,0.309-0.71,0.547-1.157,0.712
			c-0.445,0.166-0.933,0.249-1.462,0.249c-0.528,0-1.017-0.083-1.463-0.249c-0.446-0.165-0.832-0.403-1.157-0.712
			c-0.324-0.309-0.578-0.684-0.76-1.123C487.578,125.479,487.487,124.989,487.487,124.447z M489.036,124.447
			c0,0.319,0.05,0.61,0.148,0.875c0.098,0.264,0.241,0.494,0.426,0.688s0.406,0.346,0.665,0.454
			c0.258,0.108,0.545,0.162,0.864,0.162c0.317,0,0.606-0.054,0.866-0.162c0.258-0.108,0.479-0.26,0.663-0.454
			s0.327-0.424,0.427-0.688c0.099-0.265,0.147-0.556,0.147-0.875c0-0.312-0.049-0.602-0.147-0.87
			c-0.1-0.268-0.242-0.499-0.427-0.693s-0.405-0.346-0.663-0.454c-0.26-0.109-0.549-0.163-0.866-0.163
			c-0.319,0-0.606,0.054-0.864,0.163c-0.259,0.108-0.48,0.26-0.665,0.454s-0.328,0.426-0.426,0.693
			C489.086,123.845,489.036,124.135,489.036,124.447z"/>
		<path fill="#FF0A2B" d="M495.805,121.062h2.027l2.877,4.705h0.02v-4.705h1.492v6.77h-1.951l-2.953-4.818h-0.02v4.818h-1.492
			V121.062z"/>
		<path fill="#FF0A2B" d="M508.568,120.556l1.091,0.334l-2.868,7.448l-1.08-0.335L508.568,120.556z"/>
		<path fill="#FF0A2B" d="M513.148,121.062h2.236c0.542,0,1.057,0.061,1.545,0.182c0.487,0.121,0.913,0.317,1.275,0.588
			c0.364,0.271,0.652,0.623,0.866,1.056c0.214,0.434,0.319,0.959,0.319,1.578c0,0.549-0.103,1.031-0.311,1.449
			c-0.207,0.417-0.486,0.768-0.837,1.052c-0.35,0.284-0.755,0.499-1.213,0.645c-0.46,0.147-0.94,0.22-1.444,0.22h-2.438V121.062z
			 M514.641,126.455h0.773c0.344,0,0.664-0.035,0.961-0.105c0.296-0.07,0.553-0.187,0.77-0.349c0.217-0.163,0.388-0.377,0.512-0.641
			c0.123-0.265,0.187-0.588,0.187-0.97c0-0.332-0.063-0.62-0.187-0.865c-0.124-0.246-0.292-0.448-0.503-0.608
			c-0.21-0.159-0.456-0.279-0.74-0.358s-0.582-0.12-0.894-0.12h-0.879V126.455z"/>
		<path fill="#FF0A2B" d="M523.904,125.565c0,0.312-0.027,0.615-0.081,0.908c-0.055,0.293-0.159,0.553-0.312,0.779
			c-0.152,0.227-0.371,0.408-0.654,0.545c-0.284,0.137-0.655,0.206-1.114,0.206c-0.536,0-0.988-0.127-1.357-0.382
			c-0.37-0.255-0.608-0.653-0.718-1.195l1.368-0.334c0.019,0.166,0.094,0.306,0.225,0.421c0.13,0.114,0.278,0.172,0.443,0.172
			c0.173,0,0.306-0.043,0.402-0.129c0.096-0.086,0.165-0.192,0.21-0.32s0.071-0.266,0.082-0.417
			c0.009-0.149,0.014-0.288,0.014-0.415v-4.341h1.492V125.565z"/>
		<path fill="#FF0A2B" d="M527.412,121.062h1.233l2.946,6.77h-1.684l-0.584-1.434h-2.629l-0.564,1.434h-1.644L527.412,121.062z
			 M527.986,123.032l-0.822,2.104h1.654L527.986,123.032z"/>
		<path fill="#FF0A2B" d="M532.27,121.062h2.027l2.877,4.705h0.02v-4.705h1.49v6.77h-1.949l-2.955-4.818h-0.018v4.818h-1.492
			V121.062z"/>
		<path fill="#FF0A2B" d="M546.189,127.353c-0.438,0.23-0.898,0.396-1.376,0.498c-0.479,0.102-0.966,0.153-1.463,0.153
			c-0.528,0-1.017-0.083-1.463-0.249c-0.446-0.165-0.831-0.403-1.157-0.712c-0.324-0.309-0.579-0.684-0.76-1.123
			c-0.181-0.44-0.271-0.931-0.271-1.473c0-0.542,0.091-1.033,0.271-1.472c0.181-0.44,0.436-0.814,0.76-1.123
			c0.326-0.31,0.711-0.547,1.157-0.712c0.446-0.167,0.935-0.249,1.463-0.249c0.542,0,1.041,0.065,1.497,0.196
			c0.454,0.131,0.855,0.355,1.199,0.674l-1.053,1.147c-0.203-0.209-0.433-0.37-0.688-0.478c-0.255-0.109-0.574-0.163-0.956-0.163
			c-0.319,0-0.606,0.054-0.864,0.163c-0.26,0.108-0.48,0.26-0.666,0.454c-0.185,0.194-0.326,0.426-0.426,0.693
			c-0.098,0.268-0.148,0.558-0.148,0.87c0,0.319,0.051,0.61,0.148,0.875c0.1,0.264,0.241,0.494,0.426,0.688
			c0.186,0.194,0.406,0.346,0.666,0.454c0.258,0.108,0.545,0.162,0.864,0.162c0.325,0,0.605-0.037,0.841-0.11
			c0.236-0.073,0.425-0.148,0.563-0.225v-1.099h-1.213v-1.377h2.647V127.353z"/>
		<path fill="#FF0A2B" d="M547.137,124.447c0-0.542,0.091-1.033,0.271-1.472c0.183-0.44,0.436-0.814,0.762-1.123
			c0.324-0.31,0.71-0.547,1.156-0.712c0.446-0.167,0.934-0.249,1.462-0.249c0.53,0,1.017,0.083,1.464,0.249
			c0.445,0.166,0.832,0.403,1.156,0.712c0.326,0.309,0.579,0.683,0.761,1.123c0.181,0.439,0.272,0.931,0.272,1.472
			c0,0.542-0.092,1.033-0.272,1.473c-0.182,0.439-0.435,0.814-0.761,1.123c-0.324,0.309-0.711,0.547-1.156,0.712
			c-0.447,0.166-0.934,0.249-1.464,0.249c-0.528,0-1.016-0.083-1.462-0.249c-0.446-0.165-0.832-0.403-1.156-0.712
			c-0.326-0.309-0.579-0.684-0.762-1.123C547.228,125.479,547.137,124.989,547.137,124.447z M548.686,124.447
			c0,0.319,0.049,0.61,0.148,0.875c0.099,0.264,0.24,0.494,0.426,0.688c0.185,0.194,0.406,0.346,0.664,0.454
			c0.259,0.108,0.547,0.162,0.864,0.162c0.319,0,0.608-0.054,0.866-0.162c0.259-0.108,0.479-0.26,0.665-0.454
			c0.185-0.194,0.326-0.424,0.426-0.688c0.099-0.265,0.147-0.556,0.147-0.875c0-0.312-0.049-0.602-0.147-0.87
			c-0.1-0.268-0.241-0.499-0.426-0.693c-0.186-0.194-0.406-0.346-0.665-0.454c-0.258-0.109-0.547-0.163-0.866-0.163
			c-0.317,0-0.605,0.054-0.864,0.163c-0.258,0.108-0.479,0.26-0.664,0.454c-0.186,0.194-0.327,0.426-0.426,0.693
			C548.734,123.845,548.686,124.135,548.686,124.447z"/>
	</g>
	<g>
		<path fill="#666666" d="M503.555,75.825c0-0.542,0.092-1.033,0.273-1.472c0.181-0.44,0.436-0.814,0.76-1.124
			c0.326-0.309,0.711-0.546,1.158-0.712c0.443-0.166,0.933-0.249,1.462-0.249c0.528,0,1.016,0.083,1.463,0.249
			c0.445,0.166,0.831,0.403,1.157,0.712c0.324,0.309,0.578,0.684,0.76,1.124c0.181,0.439,0.271,0.93,0.271,1.472
			c0,0.542-0.091,1.033-0.271,1.473c-0.182,0.439-0.436,0.814-0.76,1.123c-0.326,0.309-0.712,0.547-1.157,0.713
			c-0.447,0.165-0.935,0.249-1.463,0.249c-0.529,0-1.019-0.083-1.462-0.249c-0.447-0.166-0.832-0.404-1.158-0.713
			c-0.324-0.309-0.579-0.684-0.76-1.123C503.646,76.858,503.555,76.368,503.555,75.825z M505.104,75.825
			c0,0.319,0.051,0.61,0.148,0.875c0.1,0.264,0.241,0.494,0.426,0.688c0.186,0.195,0.406,0.345,0.664,0.455
			c0.26,0.108,0.547,0.162,0.866,0.162c0.318,0,0.606-0.054,0.864-0.162c0.259-0.109,0.48-0.26,0.666-0.455
			c0.184-0.194,0.326-0.424,0.424-0.688c0.1-0.265,0.148-0.556,0.148-0.875c0-0.312-0.049-0.602-0.148-0.87
			c-0.098-0.268-0.24-0.499-0.424-0.693c-0.186-0.195-0.407-0.346-0.666-0.454c-0.258-0.108-0.546-0.163-0.864-0.163
			c-0.319,0-0.606,0.054-0.866,0.163c-0.258,0.108-0.479,0.259-0.664,0.454c-0.185,0.195-0.326,0.426-0.426,0.693
			C505.154,75.223,505.104,75.514,505.104,75.825z"/>
		<path fill="#666666" d="M517.581,76.6c0,0.401-0.061,0.771-0.182,1.109c-0.122,0.338-0.301,0.631-0.54,0.879
			c-0.239,0.25-0.537,0.443-0.895,0.583c-0.357,0.14-0.768,0.21-1.232,0.21c-0.472,0-0.887-0.071-1.244-0.21
			c-0.355-0.14-0.653-0.334-0.894-0.583c-0.239-0.249-0.419-0.542-0.54-0.879c-0.122-0.338-0.182-0.708-0.182-1.109v-4.159h1.492
			v4.102c0,0.21,0.033,0.405,0.101,0.583c0.066,0.179,0.159,0.333,0.282,0.464c0.12,0.13,0.265,0.233,0.434,0.306
			c0.169,0.073,0.353,0.11,0.551,0.11c0.197,0,0.378-0.037,0.544-0.11c0.166-0.073,0.31-0.176,0.431-0.306s0.215-0.285,0.282-0.464
			c0.066-0.178,0.101-0.373,0.101-0.583v-4.102h1.491V76.6z"/>
	</g>
	<g>
		<path fill="#666666" d="M504.86,109.815c0-0.542,0.091-1.032,0.272-1.473c0.182-0.439,0.436-0.814,0.76-1.124
			c0.325-0.309,0.711-0.546,1.157-0.712c0.445-0.166,0.935-0.249,1.464-0.249c0.528,0,1.015,0.083,1.462,0.249
			c0.446,0.166,0.832,0.403,1.157,0.712c0.325,0.31,0.577,0.684,0.76,1.124c0.182,0.44,0.272,0.931,0.272,1.473
			c0,0.542-0.091,1.032-0.272,1.473c-0.183,0.439-0.435,0.814-0.76,1.123s-0.711,0.547-1.157,0.712
			c-0.447,0.165-0.934,0.249-1.462,0.249c-0.529,0-1.019-0.083-1.464-0.249c-0.446-0.166-0.832-0.403-1.157-0.712
			c-0.324-0.309-0.578-0.684-0.76-1.123C504.951,110.847,504.86,110.357,504.86,109.815z M506.408,109.815
			c0,0.319,0.051,0.61,0.149,0.875s0.241,0.494,0.425,0.688c0.186,0.195,0.406,0.346,0.665,0.455
			c0.258,0.108,0.546,0.163,0.866,0.163c0.316,0,0.605-0.055,0.864-0.163c0.258-0.108,0.479-0.26,0.664-0.455
			c0.186-0.194,0.327-0.423,0.426-0.688c0.1-0.265,0.147-0.556,0.147-0.875c0-0.312-0.048-0.602-0.147-0.87
			c-0.099-0.268-0.24-0.499-0.426-0.693c-0.185-0.195-0.406-0.346-0.664-0.454c-0.259-0.109-0.548-0.163-0.864-0.163
			c-0.32,0-0.608,0.054-0.866,0.163c-0.259,0.108-0.479,0.259-0.665,0.454c-0.184,0.194-0.326,0.425-0.425,0.693
			C506.459,109.213,506.408,109.503,506.408,109.815z"/>
		<path fill="#666666" d="M518.887,110.589c0,0.402-0.061,0.771-0.184,1.109c-0.121,0.337-0.3,0.631-0.539,0.88
			c-0.238,0.249-0.537,0.442-0.895,0.583c-0.357,0.14-0.768,0.21-1.233,0.21c-0.471,0-0.886-0.07-1.243-0.21
			c-0.355-0.141-0.654-0.334-0.894-0.583c-0.239-0.249-0.419-0.542-0.54-0.88c-0.122-0.338-0.182-0.708-0.182-1.109v-4.159h1.492
			v4.102c0,0.211,0.033,0.405,0.1,0.583c0.068,0.179,0.16,0.333,0.282,0.463c0.121,0.131,0.266,0.233,0.435,0.307
			c0.17,0.073,0.354,0.11,0.55,0.11c0.198,0,0.38-0.037,0.545-0.11c0.166-0.073,0.311-0.176,0.431-0.307
			c0.121-0.13,0.215-0.285,0.283-0.463c0.066-0.178,0.1-0.373,0.1-0.583v-4.102h1.492V110.589z"/>
	</g>
	<rect x="451.304" y="67.723" fill="#FDBE00" width="124.229" height="1.011"/>
	<rect x="463.278" y="99.05" fill="#FDBE00" width="98.559" height="1.01"/>
	<rect x="462.584" y="130.79" fill="#FDBE00" width="91.857" height="1.011"/>
	<g>
		<g>
			
				<line fill="none" stroke="#009C3A" stroke-miterlimit="10" stroke-dasharray="2,2" x1="186.978" y1="144.893" x2="207.198" y2="119.099"/>
			<g>
				<polygon fill="#009C3A" points="210.223,123.324 211.625,113.452 202.374,117.171 				"/>
			</g>
		</g>
	</g>
	<g>
		<g>
			
				<line fill="none" stroke="#009C3A" stroke-width="0.75" stroke-miterlimit="10" stroke-dasharray="2,2" x1="300.895" y1="92.807" x2="329.819" y2="92.64"/>
			<g>
				<polygon fill="#009C3A" points="328.747,96.386 335.201,92.608 328.704,88.906 				"/>
			</g>
		</g>
	</g>
	<g>
		<g>
			
				<line fill="none" stroke="#686868" stroke-width="0.75" stroke-miterlimit="10" stroke-dasharray="2,2" x1="430.98" y1="92.697" x2="455.495" y2="92.534"/>
			<g>
				<polygon fill="#686868" points="454.426,96.281 460.877,92.499 454.376,88.802 				"/>
			</g>
		</g>
	</g>
	<g>
		<g>
			
				<line fill="none" stroke="#009C3A" stroke-width="0.75" stroke-miterlimit="10" stroke-dasharray="2,2" x1="430.98" y1="92.697" x2="446.111" y2="74.911"/>
			<g>
				<polygon fill="#009C3A" points="448.251,78.168 449.599,70.812 442.554,73.321 				"/>
			</g>
		</g>
	</g>
	<g>
		<g>
			
				<line fill="none" stroke="#009C3A" stroke-width="0.75" stroke-miterlimit="10" stroke-dasharray="2,2" x1="430.98" y1="92.697" x2="446.437" y2="113.983"/>
			<g>
				<polygon fill="#009C3A" points="442.768,115.295 449.599,118.338 448.82,110.901 				"/>
			</g>
		</g>
	</g>
	<g>
		<g>
			
				<line fill="none" stroke="#009C3A" stroke-miterlimit="10" stroke-dasharray="2,2" x1="186.978" y1="144.693" x2="208.971" y2="168.539"/>
			<g>
				<polygon fill="#009C3A" points="204.317,170.847 213.836,173.814 211.647,164.086 				"/>
			</g>
		</g>
	</g>
</g>
</svg>
